<svg width="116" height="104" viewBox="0 0 116 104" fill="none" xmlns="http://www.w3.org/2000/svg">
<path d="M41.5 94.5C40.1 94.5 39 93.4 39 92V28C39 26.6 40.1 25.5 41.5 25.5H88.5C89.9 25.5 91 26.6 91 28V92C91 93.4 89.9 94.5 88.5 94.5H41.5Z" fill="white"/>
<path d="M88.5 26C89.6 26 90.5 26.9 90.5 28V92C90.5 93.1 89.6 94 88.5 94H41.5C40.4 94 39.5 93.1 39.5 92V28C39.5 26.9 40.4 26 41.5 26H88.5ZM88.5 25H41.5C39.8 25 38.5 26.3 38.5 28V92C38.5 93.7 39.8 95 41.5 95H88.5C90.2 95 91.5 93.7 91.5 92V28C91.5 26.3 90.2 25 88.5 25Z" fill="#333333"/>
<path d="M47 74.5H82" stroke="#CCCCCC" stroke-miterlimit="10" stroke-linecap="round" stroke-linejoin="round"/>
<path d="M47 78.5H82" stroke="#CCCCCC" stroke-miterlimit="10" stroke-linecap="round" stroke-linejoin="round"/>
<path d="M47 82.5H82" stroke="#CCCCCC" stroke-miterlimit="10" stroke-linecap="round" stroke-linejoin="round"/>
<path d="M47 86.5H82" stroke="#CCCCCC" stroke-miterlimit="10" stroke-linecap="round" stroke-linejoin="round"/>
<path d="M47 56.5H82" stroke="#CCCCCC" stroke-miterlimit="10" stroke-linecap="round" stroke-linejoin="round"/>
<path d="M47 60.5H82" stroke="#CCCCCC" stroke-miterlimit="10" stroke-linecap="round" stroke-linejoin="round"/>
<path d="M47 64.5H82" stroke="#CCCCCC" stroke-miterlimit="10" stroke-linecap="round" stroke-linejoin="round"/>
<path d="M47 68.5H82" stroke="#CCCCCC" stroke-miterlimit="10" stroke-linecap="round" stroke-linejoin="round"/>
<path d="M47 38.5H82" stroke="#CCCCCC" stroke-miterlimit="10" stroke-linecap="round" stroke-linejoin="round"/>
<path d="M47 42.5H82" stroke="#CCCCCC" stroke-miterlimit="10" stroke-linecap="round" stroke-linejoin="round"/>
<path d="M47 46.5H82" stroke="#CCCCCC" stroke-miterlimit="10" stroke-linecap="round" stroke-linejoin="round"/>
<path d="M47 50.5H82" stroke="#CCCCCC" stroke-miterlimit="10" stroke-linecap="round" stroke-linejoin="round"/>
<path d="M38.5 45.5C44.299 45.5 49 40.799 49 35C49 29.201 44.299 24.5 38.5 24.5C32.701 24.5 28 29.201 28 35C28 40.799 32.701 45.5 38.5 45.5Z" fill="white"/>
<path d="M38.5 25C44 25 48.5 29.5 48.5 35C48.5 40.5 44 45 38.5 45C33 45 28.5 40.5 28.5 35C28.5 29.5 33 25 38.5 25ZM38.5 24C32.4 24 27.5 28.9 27.5 35C27.5 41.1 32.4 46 38.5 46C44.6 46 49.5 41.1 49.5 35C49.5 28.9 44.6 24 38.5 24Z" fill="#333333"/>
<path d="M41.9936 38.5H39.995L37.6966 40.5L35.3982 38.5H34.8985C33.7993 38.5 32.8999 37.6 32.8999 36.5V33.5C32.8999 32.4 33.7993 31.5 34.8985 31.5H41.8937C42.9929 31.5 43.8923 32.4 43.8923 33.5V36.5C43.9922 37.6 43.0929 38.5 41.9936 38.5Z" fill="#BDECFF" stroke="#333333" stroke-miterlimit="10" stroke-linecap="round" stroke-linejoin="round"/>
<path d="M38.5 70.5C44.299 70.5 49 65.799 49 60C49 54.201 44.299 49.5 38.5 49.5C32.701 49.5 28 54.201 28 60C28 65.799 32.701 70.5 38.5 70.5Z" fill="white"/>
<path d="M38.5 50C44 50 48.5 54.5 48.5 60C48.5 65.5 44 70 38.5 70C33 70 28.5 65.5 28.5 60C28.5 54.5 33 50 38.5 50ZM38.5 49C32.4 49 27.5 53.9 27.5 60C27.5 66.1 32.4 71 38.5 71C44.6 71 49.5 66.1 49.5 60C49.5 53.9 44.6 49 38.5 49Z" fill="#333333"/>
<path d="M38.7086 61.6899C38.6872 61.7264 38.671 61.7528 38.656 61.7798C37.904 63.1287 37.1525 64.478 36.3985 65.826C36.3674 65.8817 36.3215 65.9397 36.2671 65.9707C36.1454 66.0405 36.0059 65.9804 35.946 65.8449C35.5608 64.9744 35.1756 64.1039 34.791 63.2332C33.9982 61.4389 33.2079 59.6433 32.4096 57.8513C32.296 57.596 32.1545 57.3508 32.0053 57.1135C31.7603 56.7238 31.3827 56.5227 30.9356 56.4366C30.8524 56.4206 30.7684 56.4054 30.684 56.3991C30.5053 56.3861 30.4557 56.1701 30.5399 56.0436C30.5573 56.0176 30.6106 56.0019 30.6465 56.003C30.9685 56.0132 31.2916 56.0163 31.6124 56.0443C32.2482 56.0995 32.8824 56.088 33.518 56.0465C33.8833 56.0228 34.2498 56.0158 34.6158 56.0007C34.6747 55.9983 34.7301 56.0146 34.7374 56.0748C34.7477 56.1619 34.7481 56.2522 34.7363 56.3389C34.733 56.363 34.6737 56.3882 34.6362 56.3976C34.4864 56.4349 34.329 56.4501 34.1855 56.5029C33.7153 56.6754 33.5506 57.0479 33.7438 57.5025C33.9248 57.9285 34.1193 58.3487 34.3089 58.7712C35.0965 60.5269 35.8842 62.2825 36.6722 64.0379C36.6871 64.0713 36.7036 64.1037 36.7244 64.1471C36.7457 64.111 36.7608 64.0874 36.774 64.0629C37.3014 63.0803 37.8284 62.0974 38.3574 61.1154C38.388 61.0587 38.3894 61.0153 38.3609 60.9565C37.8252 59.8555 37.2942 58.7522 36.7564 57.6521C36.6498 57.434 36.5193 57.2273 36.3994 57.0156C36.1781 56.6256 35.8248 56.4467 35.3884 56.4007C35.2127 56.3821 35.1174 56.1897 35.2189 56.0464C35.2384 56.0188 35.2938 56.0016 35.3316 56.0032C35.6623 56.0179 35.9933 56.0311 36.3229 56.0583C36.8359 56.1008 37.3472 56.0835 37.8595 56.0462C38.1808 56.0228 38.5032 56.0158 38.8251 56.0006C38.9049 55.9967 38.9441 56.0373 38.9571 56.1095C38.9612 56.1323 38.9638 56.1555 38.9638 56.1786C38.9631 56.4052 38.9362 56.3922 38.7721 56.408C38.5994 56.4246 38.4242 56.4644 38.2617 56.5246C37.9814 56.6283 37.8896 56.8209 37.9726 57.1045C38.0155 57.2506 38.073 57.3944 38.1404 57.5313C38.4768 58.2143 38.8187 58.8948 39.1589 59.576C39.1678 59.5939 39.1782 59.6112 39.1932 59.638C39.2109 59.609 39.2259 59.5868 39.2387 59.5633C39.5609 58.9703 39.8836 58.3774 40.2048 57.7836C40.3057 57.5971 40.3919 57.4052 40.4245 57.193C40.4737 56.8723 40.3371 56.6165 40.0289 56.5022C39.8884 56.45 39.7357 56.4229 39.5861 56.4029C39.416 56.3804 39.3518 56.2955 39.4046 56.1291C39.4346 56.0344 39.4823 55.9964 39.5845 56.0019C39.9969 56.0245 40.4095 56.0458 40.8214 56.0755C41.2361 56.1054 41.6466 56.0542 42.0589 56.029C42.2578 56.0169 42.4571 56.0118 42.6558 56.0004C42.7346 55.9959 42.7705 56.0314 42.7756 56.1041C42.7782 56.1414 42.7798 56.1793 42.777 56.2166C42.7676 56.3417 42.7249 56.3845 42.5985 56.3977C42.3547 56.4231 42.1208 56.4815 41.9011 56.5921C41.658 56.7142 41.4806 56.908 41.3355 57.1261C41.1285 57.4373 40.9285 57.7541 40.7456 58.0796C40.3439 58.7945 39.955 59.5163 39.56 60.2348C39.5354 60.2798 39.5242 60.3157 39.5509 60.3693C40.1475 61.5633 40.7412 62.7586 41.3358 63.9536C41.3459 63.9737 41.3589 63.9927 41.3759 64.0213C41.508 63.7189 41.6364 63.4254 41.7643 63.132C42.5378 61.3577 43.3132 59.5843 44.0814 57.8077C44.1574 57.6319 44.2072 57.4406 44.238 57.2516C44.3041 56.8456 44.1054 56.5584 43.7012 56.4543C43.5858 56.4246 43.4653 56.409 43.3463 56.4003C43.2571 56.3939 43.2195 56.354 43.214 56.2726C43.2123 56.2466 43.2112 56.2206 43.2114 56.1945C43.2126 56.0354 43.249 55.994 43.4077 56.0025C43.8143 56.024 44.2204 56.067 44.627 56.0719C45.0185 56.0764 45.4105 56.0441 45.8024 56.0273C45.9927 56.0191 46.1828 56.0101 46.3731 56.0006C46.4403 55.9971 46.4749 56.0283 46.4906 56.0915C46.5305 56.252 46.4406 56.3819 46.2774 56.4C45.8214 56.4507 45.4568 56.6505 45.1977 57.0326C44.9749 57.3614 44.8162 57.7211 44.6548 58.0801C43.488 60.6744 42.3211 63.2682 41.1558 65.8632C41.1158 65.952 41.0543 65.9922 40.9602 65.9948C40.8592 65.9976 40.7832 65.9558 40.7387 65.8671C40.6635 65.7171 40.5921 65.5651 40.5189 65.4139C39.9318 64.2026 39.3448 62.9913 38.7575 61.7802C38.7443 61.7528 38.7285 61.7262 38.7086 61.6899Z" fill="#333333"/>
<path d="M38.5 95.5C44.299 95.5 49 90.799 49 85C49 79.201 44.299 74.5 38.5 74.5C32.701 74.5 28 79.201 28 85C28 90.799 32.701 95.5 38.5 95.5Z" fill="white"/>
<path d="M38.5 75C44 75 48.5 79.5 48.5 85C48.5 90.5 44 95 38.5 95C33 95 28.5 90.5 28.5 85C28.5 79.5 33 75 38.5 75ZM38.5 74C32.4 74 27.5 78.9 27.5 85C27.5 91.1 32.4 96 38.5 96C44.6 96 49.5 91.1 49.5 85C49.5 78.9 44.6 74 38.5 74Z" fill="#333333"/>
<path d="M40.5 89.5C40.5 90 40.5 90 40.5 90C40.5 90 40.8 90 41 90H42V91H36V90H37.5C37.9413 90 38 89.9918 38 89.6V84.6C38 84.3 37.8 84.2 37.7 84.1C37.6 84 37.4 84 37 84C37 84 36.9 84 36.8 84C36.7 84 36 84 36 84V83.2L40.5 83V89.5Z" fill="url(#paint0_linear_1_441)"/>
<circle cx="38.5" cy="80.5" r="1.5" fill="url(#paint1_linear_1_441)"/>
<path fill-rule="evenodd" clip-rule="evenodd" d="M15 16C15 15.7239 15.2239 15.5 15.5 15.5H58.5C58.7761 15.5 59 15.7239 59 16C59 16.2761 58.7761 16.5 58.5 16.5H16V85.5H22.5C22.7761 85.5 23 85.7239 23 86C23 86.2761 22.7761 86.5 22.5 86.5H15.5C15.2239 86.5 15 86.2761 15 86V16Z" fill="#333333"/>
<path fill-rule="evenodd" clip-rule="evenodd" d="M15 61C15 60.7239 15.2239 60.5 15.5 60.5H22.5C22.7761 60.5 23 60.7239 23 61C23 61.2761 22.7761 61.5 22.5 61.5H15.5C15.2239 61.5 15 61.2761 15 61Z" fill="#333333"/>
<path fill-rule="evenodd" clip-rule="evenodd" d="M15 35C15 34.7239 15.2239 34.5 15.5 34.5H22.5C22.7761 34.5 23 34.7239 23 35C23 35.2761 22.7761 35.5 22.5 35.5H15.5C15.2239 35.5 15 35.2761 15 35Z" fill="#333333"/>
<path d="M100.5 26C100.5 35.665 92.665 43.5 83 43.5C73.335 43.5 65.5 35.665 65.5 26C65.5 16.335 73.335 8.5 83 8.5C92.665 8.5 100.5 16.335 100.5 26Z" fill="white" stroke="#333333" stroke-miterlimit="10" stroke-linecap="round" stroke-linejoin="round"/>
<path d="M74 26.5C75.6569 26.5 77 25.1569 77 23.5C77 21.8431 75.6569 20.5 74 20.5C72.3431 20.5 71 21.8431 71 23.5C71 25.1569 72.3431 26.5 74 26.5Z" fill="white" stroke="#333333" stroke-miterlimit="10" stroke-linecap="round" stroke-linejoin="round"/>
<path d="M75 26.5H73V28.5H75V26.5Z" fill="white" stroke="#333333" stroke-miterlimit="10" stroke-linecap="round" stroke-linejoin="round"/>
<path d="M78 33.5H72C70.9 33.5 70 32.6 70 31.5C70 29.8 71.3 28.5 73 28.5H75C76.7 28.5 78 29.8 78 31.5V33.5Z" fill="url(#paint2_linear_1_441)" stroke="#333333" stroke-miterlimit="10" stroke-linecap="round" stroke-linejoin="round"/>
<path d="M92 26.5C93.6569 26.5 95 25.1569 95 23.5C95 21.8431 93.6569 20.5 92 20.5C90.3431 20.5 89 21.8431 89 23.5C89 25.1569 90.3431 26.5 92 26.5Z" fill="white" stroke="#333333" stroke-miterlimit="10" stroke-linecap="round" stroke-linejoin="round"/>
<path d="M91 28.5L93 28.5L93 26.5L91 26.5L91 28.5Z" fill="white" stroke="#333333" stroke-miterlimit="10" stroke-linecap="round" stroke-linejoin="round"/>
<path d="M88 33.5H94C95.1 33.5 96 32.6 96 31.5C96 29.8 94.7 28.5 93 28.5H91C89.3 28.5 88 29.8 88 31.5V33.5Z" fill="url(#paint3_linear_1_441)" stroke="#333333" stroke-miterlimit="10" stroke-linecap="round" stroke-linejoin="round"/>
<path d="M87 27.5H79C77.3 27.5 76 28.8 76 30.5V34.5C76 34.5 78 37.5 83 37.5C88 37.5 90 34.5 90 34.5V30.5C90 28.8 88.7 27.5 87 27.5Z" fill="#BDECFF" stroke="#333333" stroke-miterlimit="10" stroke-linecap="round" stroke-linejoin="round"/>
<path d="M85 27.5L83 28.5L81 27.5V23.5H85V27.5Z" fill="white" stroke="#333333" stroke-miterlimit="10" stroke-linecap="round" stroke-linejoin="round"/>
<path d="M83 25.5C85.7614 25.5 88 23.2614 88 20.5C88 17.7386 85.7614 15.5 83 15.5C80.2386 15.5 78 17.7386 78 20.5C78 23.2614 80.2386 25.5 83 25.5Z" fill="white" stroke="#333333" stroke-miterlimit="10" stroke-linecap="round" stroke-linejoin="round"/>
<path d="M88 20.5L84 18.5C84 18.5 78 23.3 78 20.5C78 17.7 80.2 15.5 83 15.5C85.8 15.5 88 17.7 88 20.5Z" fill="#AAAAAA" stroke="#333333" stroke-linecap="round" stroke-linejoin="round"/>
<circle cx="57.5" cy="16" r="1.5" fill="#333333"/>
<circle cx="22.5" cy="35" r="1.5" fill="#333333"/>
<circle cx="22.5" cy="61" r="1.5" fill="#333333"/>
<circle cx="22.5" cy="86" r="1.5" fill="#333333"/>
<defs>
<linearGradient id="paint0_linear_1_441" x1="36.6212" y1="86.973" x2="41.5499" y2="86.973" gradientUnits="userSpaceOnUse">
<stop stop-color="#FF8E3D"/>
<stop offset="1" stop-color="#FF6F3D"/>
</linearGradient>
<linearGradient id="paint1_linear_1_441" x1="37" y1="78.8828" x2="40" y2="82" gradientUnits="userSpaceOnUse">
<stop stop-color="#FFC671"/>
<stop offset="0.59375" stop-color="#FF7541"/>
<stop offset="1" stop-color="#FF6F3D"/>
</linearGradient>
<linearGradient id="paint2_linear_1_441" x1="70" y1="31" x2="78" y2="31" gradientUnits="userSpaceOnUse">
<stop stop-color="#FF8E3D"/>
<stop offset="1" stop-color="#FF6F3D"/>
</linearGradient>
<linearGradient id="paint3_linear_1_441" x1="96" y1="31" x2="88" y2="31" gradientUnits="userSpaceOnUse">
<stop stop-color="#FF8E3D"/>
<stop offset="1" stop-color="#FF6F3D"/>
</linearGradient>
</defs>
</svg>
