<svg width="116" height="104" viewBox="0 0 116 104" fill="none" xmlns="http://www.w3.org/2000/svg">
<path fill-rule="evenodd" clip-rule="evenodd" d="M99.4773 75C99.1886 75 98.9545 75.2239 98.9545 75.5V82H77.5227C77.234 82 77 82.2239 77 82.5C77 82.7761 77.234 83 77.5227 83H99.4773C99.766 83 100 82.7761 100 82.5V75.5C100 75.2239 99.766 75 99.4773 75Z" fill="#333333"/>
<circle cx="1.5" cy="1.5" r="1.5" transform="matrix(-1 0 0 1 101 75)" fill="#333333"/>
<circle cx="1.5" cy="1.5" r="1.5" transform="matrix(-1 0 0 1 80 81)" fill="#333333"/>
<path d="M21.3536 41.6464C21.2598 41.5527 21.1326 41.5 21 41.5H6C4.02386 41.5 2.5 43.0239 2.5 45V69C2.5 70.9761 4.02386 72.5 6 72.5H25C26.9761 72.5 28.5 70.9761 28.5 69V49C28.5 48.8674 28.4473 48.7402 28.3536 48.6464L21.3536 41.6464Z" fill="white" stroke="#333333" stroke-miterlimit="10" stroke-linecap="round" stroke-linejoin="round"/>
<path fill-rule="evenodd" clip-rule="evenodd" d="M7 47.5C7 47.2239 7.22386 47 7.5 47H18.5C18.7761 47 19 47.2239 19 47.5C19 47.7761 18.7761 48 18.5 48H8V67H23V51.5C23 51.2239 23.2239 51 23.5 51C23.7761 51 24 51.2239 24 51.5V67.5C24 67.7761 23.7761 68 23.5 68H7.5C7.22386 68 7 67.7761 7 67.5V47.5Z" fill="#8BB825"/>
<path fill-rule="evenodd" clip-rule="evenodd" d="M12.5 47C12.7761 47 13 47.2239 13 47.5V67.5C13 67.7761 12.7761 68 12.5 68C12.2239 68 12 67.7761 12 67.5V47.5C12 47.2239 12.2239 47 12.5 47Z" fill="#8BB825"/>
<path fill-rule="evenodd" clip-rule="evenodd" d="M18.5 47C18.7761 47 19 47.2239 19 47.5V67.5C19 67.7761 18.7761 68 18.5 68C18.2239 68 18 67.7761 18 67.5V47.5C18 47.2239 18.2239 47 18.5 47Z" fill="#8BB825"/>
<path fill-rule="evenodd" clip-rule="evenodd" d="M7 51.5C7 51.2239 7.23785 51 7.53125 51H23.4688C23.7622 51 24 51.2239 24 51.5C24 51.7761 23.7622 52 23.4688 52H7.53125C7.23785 52 7 51.7761 7 51.5Z" fill="#8BB825"/>
<path fill-rule="evenodd" clip-rule="evenodd" d="M7 55.5C7 55.2239 7.23785 55 7.53125 55H23.4688C23.7622 55 24 55.2239 24 55.5C24 55.7761 23.7622 56 23.4688 56H7.53125C7.23785 56 7 55.7761 7 55.5Z" fill="#8BB825"/>
<path fill-rule="evenodd" clip-rule="evenodd" d="M7 59.5C7 59.2239 7.23785 59 7.53125 59H23.4688C23.7622 59 24 59.2239 24 59.5C24 59.7761 23.7622 60 23.4688 60H7.53125C7.23785 60 7 59.7761 7 59.5Z" fill="#8BB825"/>
<path fill-rule="evenodd" clip-rule="evenodd" d="M7 63.5C7 63.2239 7.23785 63 7.53125 63H23.4688C23.7622 63 24 63.2239 24 63.5C24 63.7761 23.7622 64 23.4688 64H7.53125C7.23785 64 7 63.7761 7 63.5Z" fill="#8BB825"/>
<path d="M28 49.5C28.2022 49.5 28.3845 49.3782 28.4619 49.1913C28.5393 49.0045 28.4966 48.7894 28.3536 48.6464L21.3536 41.6464C21.2106 41.5034 20.9955 41.4607 20.8087 41.5381C20.6218 41.6155 20.5 41.7978 20.5 42V49C20.5 49.2761 20.7239 49.5 21 49.5H28Z" fill="white" stroke="#333333" stroke-miterlimit="10" stroke-linecap="round" stroke-linejoin="round"/>
<path d="M62.3536 9.64645C62.2598 9.55268 62.1326 9.5 62 9.5H47C45.0239 9.5 43.5 11.0239 43.5 13V37C43.5 38.9761 45.0239 40.5 47 40.5H66C67.9761 40.5 69.5 38.9761 69.5 37V17C69.5 16.8674 69.4473 16.7402 69.3536 16.6464L62.3536 9.64645Z" fill="white" stroke="#333333" stroke-miterlimit="10" stroke-linecap="round" stroke-linejoin="round"/>
<path d="M69 17.5C69.2022 17.5 69.3845 17.3782 69.4619 17.1913C69.5393 17.0045 69.4966 16.7894 69.3536 16.6464L62.3536 9.64645C62.2106 9.50345 61.9955 9.46067 61.8087 9.53806C61.6218 9.61545 61.5 9.79777 61.5 10V17C61.5 17.2761 61.7239 17.5 62 17.5H69Z" fill="white" stroke="#333333" stroke-miterlimit="10" stroke-linecap="round" stroke-linejoin="round"/>
<path fill-rule="evenodd" clip-rule="evenodd" d="M49 21.5C49 21.2239 49.2239 21 49.5 21H64.5C64.7761 21 65 21.2239 65 21.5C65 21.7761 64.7761 22 64.5 22H49.5C49.2239 22 49 21.7761 49 21.5Z" fill="#333333"/>
<path fill-rule="evenodd" clip-rule="evenodd" d="M49 24.5C49 24.2239 49.2239 24 49.5 24H64.5C64.7761 24 65 24.2239 65 24.5C65 24.7761 64.7761 25 64.5 25H49.5C49.2239 25 49 24.7761 49 24.5Z" fill="#333333"/>
<path fill-rule="evenodd" clip-rule="evenodd" d="M49 27.5C49 27.2239 49.2239 27 49.5 27H64.5C64.7761 27 65 27.2239 65 27.5C65 27.7761 64.7761 28 64.5 28H49.5C49.2239 28 49 27.7761 49 27.5Z" fill="#333333"/>
<path fill-rule="evenodd" clip-rule="evenodd" d="M49 30.5C49 30.2239 49.2239 30 49.5 30H64.5C64.7761 30 65 30.2239 65 30.5C65 30.7761 64.7761 31 64.5 31H49.5C49.2239 31 49 30.7761 49 30.5Z" fill="#333333"/>
<path fill-rule="evenodd" clip-rule="evenodd" d="M49 33.5C49 33.2239 49.2239 33 49.5 33H64.5C64.7761 33 65 33.2239 65 33.5C65 33.7761 64.7761 34 64.5 34H49.5C49.2239 34 49 33.7761 49 33.5Z" fill="#333333"/>
<path d="M105.354 41.6464C105.26 41.5527 105.133 41.5 105 41.5H90C88.0239 41.5 86.5 43.0239 86.5 45V69C86.5 70.9761 88.0239 72.5 90 72.5H109C110.976 72.5 112.5 70.9761 112.5 69V49C112.5 48.8674 112.447 48.7402 112.354 48.6464L105.354 41.6464Z" fill="white" stroke="#333333" stroke-miterlimit="10" stroke-linecap="round" stroke-linejoin="round"/>
<path d="M112 49.5C112.202 49.5 112.385 49.3782 112.462 49.1913C112.539 49.0045 112.497 48.7894 112.354 48.6464L105.354 41.6464C105.211 41.5034 104.995 41.4607 104.809 41.5381C104.622 41.6155 104.5 41.7978 104.5 42V49C104.5 49.2761 104.724 49.5 105 49.5H112Z" fill="white" stroke="#333333" stroke-miterlimit="10" stroke-linecap="round" stroke-linejoin="round"/>
<path d="M94 61.5H105C106.376 61.5 107.5 60.3761 107.5 59V54C107.5 52.6239 106.376 51.5 105 51.5H94C92.6239 51.5 91.5 52.6239 91.5 54V59C91.5 60.3761 92.6239 61.5 94 61.5Z" fill="url(#paint0_linear_1_284)" stroke="#333333" stroke-miterlimit="10" stroke-linecap="round" stroke-linejoin="round"/>
<path fill-rule="evenodd" clip-rule="evenodd" d="M91 64.5C91 64.2239 91.2378 64 91.5312 64H107.469C107.762 64 108 64.2239 108 64.5C108 64.7761 107.762 65 107.469 65H91.5312C91.2378 65 91 64.7761 91 64.5Z" fill="#333333"/>
<path fill-rule="evenodd" clip-rule="evenodd" d="M91 67.5C91 67.2239 91.2378 67 91.5312 67H107.469C107.762 67 108 67.2239 108 67.5C108 67.7761 107.762 68 107.469 68H91.5312C91.2378 68 91 67.7761 91 67.5Z" fill="#333333"/>
<path fill-rule="evenodd" clip-rule="evenodd" d="M104.854 53.1464C105.049 53.3417 105.049 53.6583 104.854 53.8536L99.8536 58.8536C99.6583 59.0488 99.3417 59.0488 99.1464 58.8536L97 56.7071L94.8536 58.8536C94.6583 59.0488 94.3417 59.0488 94.1464 58.8536C93.9512 58.6583 93.9512 58.3417 94.1464 58.1464L96.6464 55.6464C96.8417 55.4512 97.1583 55.4512 97.3536 55.6464L99.5 57.7929L104.146 53.1464C104.342 52.9512 104.658 52.9512 104.854 53.1464Z" fill="white"/>
<path d="M71.6 68.5H43.4C42.3 68.5 41.5 67.6 41.5 66.6V60.4C41.5 59.3 42.4 58.5 43.4 58.5H71.6C72.7 58.5 73.5 59.4 73.5 60.4V66.6C73.5 67.6 72.6 68.5 71.6 68.5Z" fill="#EFEFEF" stroke="#333333" stroke-miterlimit="10" stroke-linecap="round" stroke-linejoin="round"/>
<path d="M46.5 65.5C47.6046 65.5 48.5 64.6046 48.5 63.5C48.5 62.3954 47.6046 61.5 46.5 61.5C45.3954 61.5 44.5 62.3954 44.5 63.5C44.5 64.6046 45.3954 65.5 46.5 65.5Z" fill="#BDECFF" stroke="#333333" stroke-miterlimit="10" stroke-linecap="round" stroke-linejoin="round"/>
<path d="M60 61.5H69.5" stroke="#FF6F3D" stroke-miterlimit="10" stroke-linecap="round" stroke-linejoin="round"/>
<path d="M60 63.5H69.5" stroke="#FF6F3D" stroke-miterlimit="10" stroke-linecap="round" stroke-linejoin="round"/>
<path d="M60 65.5H69.5" stroke="#FF6F3D" stroke-miterlimit="10" stroke-linecap="round" stroke-linejoin="round"/>
<path d="M71.6 81.5H43.4C42.3 81.5 41.5 80.6 41.5 79.6V73.4C41.5 72.3 42.4 71.5 43.4 71.5H71.6C72.7 71.5 73.5 72.4 73.5 73.4V79.6C73.5 80.6 72.6 81.5 71.6 81.5Z" fill="#EFEFEF" stroke="#333333" stroke-miterlimit="10" stroke-linecap="round" stroke-linejoin="round"/>
<path d="M46.5 78.5C47.6046 78.5 48.5 77.6046 48.5 76.5C48.5 75.3954 47.6046 74.5 46.5 74.5C45.3954 74.5 44.5 75.3954 44.5 76.5C44.5 77.6046 45.3954 78.5 46.5 78.5Z" fill="#BDECFF" stroke="#333333" stroke-miterlimit="10" stroke-linecap="round" stroke-linejoin="round"/>
<path d="M60 74.5H69.5" stroke="#FF6F3D" stroke-miterlimit="10" stroke-linecap="round" stroke-linejoin="round"/>
<path d="M60 76.5H69.5" stroke="#FF6F3D" stroke-miterlimit="10" stroke-linecap="round" stroke-linejoin="round"/>
<path d="M60 78.5H69.5" stroke="#FF6F3D" stroke-miterlimit="10" stroke-linecap="round" stroke-linejoin="round"/>
<path d="M71.6 94.5H43.4C42.3 94.5 41.5 93.6 41.5 92.6V86.4C41.5 85.3 42.4 84.5 43.4 84.5H71.6C72.7 84.5 73.5 85.4 73.5 86.4V92.6C73.5 93.6 72.6 94.5 71.6 94.5Z" fill="#EFEFEF" stroke="#333333" stroke-miterlimit="10" stroke-linecap="round" stroke-linejoin="round"/>
<path d="M46.5 91.5C47.6046 91.5 48.5 90.6046 48.5 89.5C48.5 88.3954 47.6046 87.5 46.5 87.5C45.3954 87.5 44.5 88.3954 44.5 89.5C44.5 90.6046 45.3954 91.5 46.5 91.5Z" fill="#BDECFF" stroke="#333333" stroke-miterlimit="10" stroke-linecap="round" stroke-linejoin="round"/>
<path d="M60 87.5H69.5" stroke="#FF6F3D" stroke-miterlimit="10" stroke-linecap="round" stroke-linejoin="round"/>
<path d="M60 89.5H69.5" stroke="#FF6F3D" stroke-miterlimit="10" stroke-linecap="round" stroke-linejoin="round"/>
<path d="M60 91.5H69.5" stroke="#FF6F3D" stroke-miterlimit="10" stroke-linecap="round" stroke-linejoin="round"/>
<path fill-rule="evenodd" clip-rule="evenodd" d="M14.5227 75C14.8114 75 15.0455 75.2239 15.0455 75.5V82H36.4773C36.766 82 37 82.2239 37 82.5C37 82.7761 36.766 83 36.4773 83H14.5227C14.234 83 14 82.7761 14 82.5V75.5C14 75.2239 14.234 75 14.5227 75Z" fill="#333333"/>
<circle cx="14.5" cy="76.5" r="1.5" fill="#333333"/>
<circle cx="35.5" cy="82.5" r="1.5" fill="#333333"/>
<path fill-rule="evenodd" clip-rule="evenodd" d="M54.5 42C54.7761 42 55 42.2239 55 42.5V47L57.8536 50.4393C57.9473 50.5331 58 50.6603 58 50.7929V53.5C58 53.7761 57.7761 54 57.5 54C57.2239 54 57 53.7761 57 53.5V51L54.1464 47.5607C54.0527 47.4669 54 47.3397 54 47.2071V42.5C54 42.2239 54.2239 42 54.5 42Z" fill="#333333"/>
<circle cx="54.5" cy="43.5" r="1.5" fill="#333333"/>
<circle cx="57.5" cy="53.5" r="1.5" fill="#333333"/>
<defs>
<linearGradient id="paint0_linear_1_284" x1="92" y1="56.5" x2="107" y2="56.5" gradientUnits="userSpaceOnUse">
<stop stop-color="#FF8E3D"/>
<stop offset="1" stop-color="#FF6F3D"/>
</linearGradient>
</defs>
</svg>
