<svg width="116" height="104" viewBox="0 0 116 104" fill="none" xmlns="http://www.w3.org/2000/svg">
<g clip-path="url(#clip0_1_553)">
<path d="M6 20C6.55228 20 7 19.5523 7 19C7 18.4477 6.55228 18 6 18C5.44772 18 5 18.4477 5 19C5 19.5523 5.44772 20 6 20Z" fill="#CCCCCC"/>
<path d="M9 20C9.55228 20 10 19.5523 10 19C10 18.4477 9.55228 18 9 18C8.44772 18 8 18.4477 8 19C8 19.5523 8.44772 20 9 20Z" fill="#CCCCCC"/>
<path d="M12 20C12.5523 20 13 19.5523 13 19C13 18.4477 12.5523 18 12 18C11.4477 18 11 18.4477 11 19C11 19.5523 11.4477 20 12 20Z" fill="#CCCCCC"/>
<path d="M15 20C15.5523 20 16 19.5523 16 19C16 18.4477 15.5523 18 15 18C14.4477 18 14 18.4477 14 19C14 19.5523 14.4477 20 15 20Z" fill="#CCCCCC"/>
<path d="M18 20C18.5523 20 19 19.5523 19 19C19 18.4477 18.5523 18 18 18C17.4477 18 17 18.4477 17 19C17 19.5523 17.4477 20 18 20Z" fill="#CCCCCC"/>
<path d="M21 20C21.5523 20 22 19.5523 22 19C22 18.4477 21.5523 18 21 18C20.4477 18 20 18.4477 20 19C20 19.5523 20.4477 20 21 20Z" fill="#CCCCCC"/>
<path d="M9 17C9.55228 17 10 16.5523 10 16C10 15.4477 9.55228 15 9 15C8.44772 15 8 15.4477 8 16C8 16.5523 8.44772 17 9 17Z" fill="#CCCCCC"/>
<path d="M12 17C12.5523 17 13 16.5523 13 16C13 15.4477 12.5523 15 12 15C11.4477 15 11 15.4477 11 16C11 16.5523 11.4477 17 12 17Z" fill="#CCCCCC"/>
<path d="M15 17C15.5523 17 16 16.5523 16 16C16 15.4477 15.5523 15 15 15C14.4477 15 14 15.4477 14 16C14 16.5523 14.4477 17 15 17Z" fill="#CCCCCC"/>
<path d="M18 17C18.5523 17 19 16.5523 19 16C19 15.4477 18.5523 15 18 15C17.4477 15 17 15.4477 17 16C17 16.5523 17.4477 17 18 17Z" fill="#CCCCCC"/>
<path d="M12 14C12.5523 14 13 13.5523 13 13C13 12.4477 12.5523 12 12 12C11.4477 12 11 12.4477 11 13C11 13.5523 11.4477 14 12 14Z" fill="#CCCCCC"/>
<path d="M15 14C15.5523 14 16 13.5523 16 13C16 12.4477 15.5523 12 15 12C14.4477 12 14 12.4477 14 13C14 13.5523 14.4477 14 15 14Z" fill="#CCCCCC"/>
<path d="M18 14C18.5523 14 19 13.5523 19 13C19 12.4477 18.5523 12 18 12C17.4477 12 17 12.4477 17 13C17 13.5523 17.4477 14 18 14Z" fill="#CCCCCC"/>
<path d="M21 14C21.5523 14 22 13.5523 22 13C22 12.4477 21.5523 12 21 12C20.4477 12 20 12.4477 20 13C20 13.5523 20.4477 14 21 14Z" fill="#CCCCCC"/>
<path d="M24 14C24.5523 14 25 13.5523 25 13C25 12.4477 24.5523 12 24 12C23.4477 12 23 12.4477 23 13C23 13.5523 23.4477 14 24 14Z" fill="#CCCCCC"/>
<path d="M27 14C27.5523 14 28 13.5523 28 13C28 12.4477 27.5523 12 27 12C26.4477 12 26 12.4477 26 13C26 13.5523 26.4477 14 27 14Z" fill="#CCCCCC"/>
<path d="M30 14C30.5523 14 31 13.5523 31 13C31 12.4477 30.5523 12 30 12C29.4477 12 29 12.4477 29 13C29 13.5523 29.4477 14 30 14Z" fill="#CCCCCC"/>
<path d="M33 14C33.5523 14 34 13.5523 34 13C34 12.4477 33.5523 12 33 12C32.4477 12 32 12.4477 32 13C32 13.5523 32.4477 14 33 14Z" fill="#333333"/>
<path d="M36 14C36.5523 14 37 13.5523 37 13C37 12.4477 36.5523 12 36 12C35.4477 12 35 12.4477 35 13C35 13.5523 35.4477 14 36 14Z" fill="#CCCCCC"/>
<path d="M39 14C39.5523 14 40 13.5523 40 13C40 12.4477 39.5523 12 39 12C38.4477 12 38 12.4477 38 13C38 13.5523 38.4477 14 39 14Z" fill="#CCCCCC"/>
<path d="M42 14C42.5523 14 43 13.5523 43 13C43 12.4477 42.5523 12 42 12C41.4477 12 41 12.4477 41 13C41 13.5523 41.4477 14 42 14Z" fill="#CCCCCC"/>
<path d="M45 14C45.5523 14 46 13.5523 46 13C46 12.4477 45.5523 12 45 12C44.4477 12 44 12.4477 44 13C44 13.5523 44.4477 14 45 14Z" fill="#CCCCCC"/>
<path d="M24 11C24.5523 11 25 10.5523 25 10C25 9.44772 24.5523 9 24 9C23.4477 9 23 9.44772 23 10C23 10.5523 23.4477 11 24 11Z" fill="#CCCCCC"/>
<path d="M27 11C27.5523 11 28 10.5523 28 10C28 9.44772 27.5523 9 27 9C26.4477 9 26 9.44772 26 10C26 10.5523 26.4477 11 27 11Z" fill="#CCCCCC"/>
<path d="M30 11C30.5523 11 31 10.5523 31 10C31 9.44772 30.5523 9 30 9C29.4477 9 29 9.44772 29 10C29 10.5523 29.4477 11 30 11Z" fill="#333333"/>
<path d="M33 11C33.5523 11 34 10.5523 34 10C34 9.44772 33.5523 9 33 9C32.4477 9 32 9.44772 32 10C32 10.5523 32.4477 11 33 11Z" fill="#333333"/>
<path d="M36 11C36.5523 11 37 10.5523 37 10C37 9.44772 36.5523 9 36 9C35.4477 9 35 9.44772 35 10C35 10.5523 35.4477 11 36 11Z" fill="#333333"/>
<path d="M39 11C39.5523 11 40 10.5523 40 10C40 9.44772 39.5523 9 39 9C38.4477 9 38 9.44772 38 10C38 10.5523 38.4477 11 39 11Z" fill="#CCCCCC"/>
<path d="M42 11C42.5523 11 43 10.5523 43 10C43 9.44772 42.5523 9 42 9C41.4477 9 41 9.44772 41 10C41 10.5523 41.4477 11 42 11Z" fill="#CCCCCC"/>
<path d="M45 11C45.5523 11 46 10.5523 46 10C46 9.44772 45.5523 9 45 9C44.4477 9 44 9.44772 44 10C44 10.5523 44.4477 11 45 11Z" fill="#CCCCCC"/>
<path d="M48 14C48.5523 14 49 13.5523 49 13C49 12.4477 48.5523 12 48 12C47.4477 12 47 12.4477 47 13C47 13.5523 47.4477 14 48 14Z" fill="#CCCCCC"/>
<path d="M80 14C80.5523 14 81 13.5523 81 13C81 12.4477 80.5523 12 80 12C79.4477 12 79 12.4477 79 13C79 13.5523 79.4477 14 80 14Z" fill="#CCCCCC"/>
<path d="M92 14C92.5523 14 93 13.5523 93 13C93 12.4477 92.5523 12 92 12C91.4477 12 91 12.4477 91 13C91 13.5523 91.4477 14 92 14Z" fill="#CCCCCC"/>
<path d="M71 14C71.5523 14 72 13.5523 72 13C72 12.4477 71.5523 12 71 12C70.4477 12 70 12.4477 70 13C70 13.5523 70.4477 14 71 14Z" fill="#CCCCCC"/>
<path d="M74 14C74.5523 14 75 13.5523 75 13C75 12.4477 74.5523 12 74 12C73.4477 12 73 12.4477 73 13C73 13.5523 73.4477 14 74 14Z" fill="#CCCCCC"/>
<path d="M77 14C77.5523 14 78 13.5523 78 13C78 12.4477 77.5523 12 77 12C76.4477 12 76 12.4477 76 13C76 13.5523 76.4477 14 77 14Z" fill="#CCCCCC"/>
<path d="M30 17C30.5523 17 31 16.5523 31 16C31 15.4477 30.5523 15 30 15C29.4477 15 29 15.4477 29 16C29 16.5523 29.4477 17 30 17Z" fill="#CCCCCC"/>
<path d="M33 17C33.5523 17 34 16.5523 34 16C34 15.4477 33.5523 15 33 15C32.4477 15 32 15.4477 32 16C32 16.5523 32.4477 17 33 17Z" fill="#CCCCCC"/>
<path d="M36 17C36.5523 17 37 16.5523 37 16C37 15.4477 36.5523 15 36 15C35.4477 15 35 15.4477 35 16C35 16.5523 35.4477 17 36 17Z" fill="#CCCCCC"/>
<path d="M39 17C39.5523 17 40 16.5523 40 16C40 15.4477 39.5523 15 39 15C38.4477 15 38 15.4477 38 16C38 16.5523 38.4477 17 39 17Z" fill="#CCCCCC"/>
<path d="M42 17C42.5523 17 43 16.5523 43 16C43 15.4477 42.5523 15 42 15C41.4477 15 41 15.4477 41 16C41 16.5523 41.4477 17 42 17Z" fill="#CCCCCC"/>
<path d="M45 17C45.5523 17 46 16.5523 46 16C46 15.4477 45.5523 15 45 15C44.4477 15 44 15.4477 44 16C44 16.5523 44.4477 17 45 17Z" fill="#CCCCCC"/>
<path d="M48 17C48.5523 17 49 16.5523 49 16C49 15.4477 48.5523 15 48 15C47.4477 15 47 15.4477 47 16C47 16.5523 47.4477 17 48 17Z" fill="#CCCCCC"/>
<path d="M59 17C59.5523 17 60 16.5523 60 16C60 15.4477 59.5523 15 59 15C58.4477 15 58 15.4477 58 16C58 16.5523 58.4477 17 59 17Z" fill="#333333"/>
<path d="M62 17C62.5523 17 63 16.5523 63 16C63 15.4477 62.5523 15 62 15C61.4477 15 61 15.4477 61 16C61 16.5523 61.4477 17 62 17Z" fill="#333333"/>
<path d="M65 17C65.5523 17 66 16.5523 66 16C66 15.4477 65.5523 15 65 15C64.4477 15 64 15.4477 64 16C64 16.5523 64.4477 17 65 17Z" fill="#333333"/>
<path d="M92 17C92.5523 17 93 16.5523 93 16C93 15.4477 92.5523 15 92 15C91.4477 15 91 15.4477 91 16C91 16.5523 91.4477 17 92 17Z" fill="#CCCCCC"/>
<path d="M95 17C95.5523 17 96 16.5523 96 16C96 15.4477 95.5523 15 95 15C94.4477 15 94 15.4477 94 16C94 16.5523 94.4477 17 95 17Z" fill="#CCCCCC"/>
<path d="M98 17C98.5523 17 99 16.5523 99 16C99 15.4477 98.5523 15 98 15C97.4477 15 97 15.4477 97 16C97 16.5523 97.4477 17 98 17Z" fill="#CCCCCC"/>
<path d="M101 17C101.552 17 102 16.5523 102 16C102 15.4477 101.552 15 101 15C100.448 15 100 15.4477 100 16C100 16.5523 100.448 17 101 17Z" fill="#CCCCCC"/>
<path d="M92 20C92.5523 20 93 19.5523 93 19C93 18.4477 92.5523 18 92 18C91.4477 18 91 18.4477 91 19C91 19.5523 91.4477 20 92 20Z" fill="#333333"/>
<path d="M95 20C95.5523 20 96 19.5523 96 19C96 18.4477 95.5523 18 95 18C94.4477 18 94 18.4477 94 19C94 19.5523 94.4477 20 95 20Z" fill="#CCCCCC"/>
<path d="M98 20C98.5523 20 99 19.5523 99 19C99 18.4477 98.5523 18 98 18C97.4477 18 97 18.4477 97 19C97 19.5523 97.4477 20 98 20Z" fill="#333333"/>
<path d="M101 20C101.552 20 102 19.5523 102 19C102 18.4477 101.552 18 101 18C100.448 18 100 18.4477 100 19C100 19.5523 100.448 20 101 20Z" fill="#CCCCCC"/>
<path d="M104 20C104.552 20 105 19.5523 105 19C105 18.4477 104.552 18 104 18C103.448 18 103 18.4477 103 19C103 19.5523 103.448 20 104 20Z" fill="#CCCCCC"/>
<path d="M110 20C110.552 20 111 19.5523 111 19C111 18.4477 110.552 18 110 18C109.448 18 109 18.4477 109 19C109 19.5523 109.448 20 110 20Z" fill="#CCCCCC"/>
<path d="M80 20C80.5523 20 81 19.5523 81 19C81 18.4477 80.5523 18 80 18C79.4477 18 79 18.4477 79 19C79 19.5523 79.4477 20 80 20Z" fill="#CCCCCC"/>
<path d="M74 20C74.5523 20 75 19.5523 75 19C75 18.4477 74.5523 18 74 18C73.4477 18 73 18.4477 73 19C73 19.5523 73.4477 20 74 20Z" fill="#CCCCCC"/>
<path d="M83 20C83.5523 20 84 19.5523 84 19C84 18.4477 83.5523 18 83 18C82.4477 18 82 18.4477 82 19C82 19.5523 82.4477 20 83 20Z" fill="#CCCCCC"/>
<path d="M86 20C86.5523 20 87 19.5523 87 19C87 18.4477 86.5523 18 86 18C85.4477 18 85 18.4477 85 19C85 19.5523 85.4477 20 86 20Z" fill="#CCCCCC"/>
<path d="M89 20C89.5523 20 90 19.5523 90 19C90 18.4477 89.5523 18 89 18C88.4477 18 88 18.4477 88 19C88 19.5523 88.4477 20 89 20Z" fill="#CCCCCC"/>
<path d="M92 23C92.5523 23 93 22.5523 93 22C93 21.4477 92.5523 21 92 21C91.4477 21 91 21.4477 91 22C91 22.5523 91.4477 23 92 23Z" fill="#CCCCCC"/>
<path d="M95 23C95.5523 23 96 22.5523 96 22C96 21.4477 95.5523 21 95 21C94.4477 21 94 21.4477 94 22C94 22.5523 94.4477 23 95 23Z" fill="#CCCCCC"/>
<path d="M98 23C98.5523 23 99 22.5523 99 22C99 21.4477 98.5523 21 98 21C97.4477 21 97 21.4477 97 22C97 22.5523 97.4477 23 98 23Z" fill="#CCCCCC"/>
<path d="M101 23C101.552 23 102 22.5523 102 22C102 21.4477 101.552 21 101 21C100.448 21 100 21.4477 100 22C100 22.5523 100.448 23 101 23Z" fill="#CCCCCC"/>
<path d="M104 23C104.552 23 105 22.5523 105 22C105 21.4477 104.552 21 104 21C103.448 21 103 21.4477 103 22C103 22.5523 103.448 23 104 23Z" fill="#CCCCCC"/>
<path d="M107 23C107.552 23 108 22.5523 108 22C108 21.4477 107.552 21 107 21C106.448 21 106 21.4477 106 22C106 22.5523 106.448 23 107 23Z" fill="#CCCCCC"/>
<path d="M110 23C110.552 23 111 22.5523 111 22C111 21.4477 110.552 21 110 21C109.448 21 109 21.4477 109 22C109 22.5523 109.448 23 110 23Z" fill="#CCCCCC"/>
<path d="M113 23C113.552 23 114 22.5523 114 22C114 21.4477 113.552 21 113 21C112.448 21 112 21.4477 112 22C112 22.5523 112.448 23 113 23Z" fill="#CCCCCC"/>
<path d="M80 23C80.5523 23 81 22.5523 81 22C81 21.4477 80.5523 21 80 21C79.4477 21 79 21.4477 79 22C79 22.5523 79.4477 23 80 23Z" fill="#CCCCCC"/>
<path d="M74 23C74.5523 23 75 22.5523 75 22C75 21.4477 74.5523 21 74 21C73.4477 21 73 21.4477 73 22C73 22.5523 73.4477 23 74 23Z" fill="#CCCCCC"/>
<path d="M83 23C83.5523 23 84 22.5523 84 22C84 21.4477 83.5523 21 83 21C82.4477 21 82 21.4477 82 22C82 22.5523 82.4477 23 83 23Z" fill="#CCCCCC"/>
<path d="M86 23C86.5523 23 87 22.5523 87 22C87 21.4477 86.5523 21 86 21C85.4477 21 85 21.4477 85 22C85 22.5523 85.4477 23 86 23Z" fill="#CCCCCC"/>
<path d="M59 23C59.5523 23 60 22.5523 60 22C60 21.4477 59.5523 21 59 21C58.4477 21 58 21.4477 58 22C58 22.5523 58.4477 23 59 23Z" fill="#CCCCCC"/>
<path d="M62 23C62.5523 23 63 22.5523 63 22C63 21.4477 62.5523 21 62 21C61.4477 21 61 21.4477 61 22C61 22.5523 61.4477 23 62 23Z" fill="#CCCCCC"/>
<path d="M65 23C65.5523 23 66 22.5523 66 22C66 21.4477 65.5523 21 65 21C64.4477 21 64 21.4477 64 22C64 22.5523 64.4477 23 65 23Z" fill="#CCCCCC"/>
<path d="M89 23C89.5523 23 90 22.5523 90 22C90 21.4477 89.5523 21 89 21C88.4477 21 88 21.4477 88 22C88 22.5523 88.4477 23 89 23Z" fill="#CCCCCC"/>
<path d="M92 26C92.5523 26 93 25.5523 93 25C93 24.4477 92.5523 24 92 24C91.4477 24 91 24.4477 91 25C91 25.5523 91.4477 26 92 26Z" fill="#CCCCCC"/>
<path d="M95 26C95.5523 26 96 25.5523 96 25C96 24.4477 95.5523 24 95 24C94.4477 24 94 24.4477 94 25C94 25.5523 94.4477 26 95 26Z" fill="#CCCCCC"/>
<path d="M98 26C98.5523 26 99 25.5523 99 25C99 24.4477 98.5523 24 98 24C97.4477 24 97 24.4477 97 25C97 25.5523 97.4477 26 98 26Z" fill="#CCCCCC"/>
<path d="M101 26C101.552 26 102 25.5523 102 25C102 24.4477 101.552 24 101 24C100.448 24 100 24.4477 100 25C100 25.5523 100.448 26 101 26Z" fill="#CCCCCC"/>
<path d="M104 26C104.552 26 105 25.5523 105 25C105 24.4477 104.552 24 104 24C103.448 24 103 24.4477 103 25C103 25.5523 103.448 26 104 26Z" fill="#CCCCCC"/>
<path d="M107 26C107.552 26 108 25.5523 108 25C108 24.4477 107.552 24 107 24C106.448 24 106 24.4477 106 25C106 25.5523 106.448 26 107 26Z" fill="#CCCCCC"/>
<path d="M110 26C110.552 26 111 25.5523 111 25C111 24.4477 110.552 24 110 24C109.448 24 109 24.4477 109 25C109 25.5523 109.448 26 110 26Z" fill="#CCCCCC"/>
<path d="M113 26C113.552 26 114 25.5523 114 25C114 24.4477 113.552 24 113 24C112.448 24 112 24.4477 112 25C112 25.5523 112.448 26 113 26Z" fill="#CCCCCC"/>
<path d="M80 26C80.5523 26 81 25.5523 81 25C81 24.4477 80.5523 24 80 24C79.4477 24 79 24.4477 79 25C79 25.5523 79.4477 26 80 26Z" fill="#CCCCCC"/>
<path d="M77 26C77.5523 26 78 25.5523 78 25C78 24.4477 77.5523 24 77 24C76.4477 24 76 24.4477 76 25C76 25.5523 76.4477 26 77 26Z" fill="#CCCCCC"/>
<path d="M74 26C74.5523 26 75 25.5523 75 25C75 24.4477 74.5523 24 74 24C73.4477 24 73 24.4477 73 25C73 25.5523 73.4477 26 74 26Z" fill="#CCCCCC"/>
<path d="M71 26C71.5523 26 72 25.5523 72 25C72 24.4477 71.5523 24 71 24C70.4477 24 70 24.4477 70 25C70 25.5523 70.4477 26 71 26Z" fill="#CCCCCC"/>
<path d="M68 26C68.5523 26 69 25.5523 69 25C69 24.4477 68.5523 24 68 24C67.4477 24 67 24.4477 67 25C67 25.5523 67.4477 26 68 26Z" fill="#CCCCCC"/>
<path d="M65 26C65.5523 26 66 25.5523 66 25C66 24.4477 65.5523 24 65 24C64.4477 24 64 24.4477 64 25C64 25.5523 64.4477 26 65 26Z" fill="#CCCCCC"/>
<path d="M62 26C62.5523 26 63 25.5523 63 25C63 24.4477 62.5523 24 62 24C61.4477 24 61 24.4477 61 25C61 25.5523 61.4477 26 62 26Z" fill="#CCCCCC"/>
<path d="M59 26C59.5523 26 60 25.5523 60 25C60 24.4477 59.5523 24 59 24C58.4477 24 58 24.4477 58 25C58 25.5523 58.4477 26 59 26Z" fill="#CCCCCC"/>
<path d="M83 26C83.5523 26 84 25.5523 84 25C84 24.4477 83.5523 24 83 24C82.4477 24 82 24.4477 82 25C82 25.5523 82.4477 26 83 26Z" fill="#CCCCCC"/>
<path d="M86 26C86.5523 26 87 25.5523 87 25C87 24.4477 86.5523 24 86 24C85.4477 24 85 24.4477 85 25C85 25.5523 85.4477 26 86 26Z" fill="#CCCCCC"/>
<path d="M89 26C89.5523 26 90 25.5523 90 25C90 24.4477 89.5523 24 89 24C88.4477 24 88 24.4477 88 25C88 25.5523 88.4477 26 89 26Z" fill="#CCCCCC"/>
<path d="M92 29C92.5523 29 93 28.5523 93 28C93 27.4477 92.5523 27 92 27C91.4477 27 91 27.4477 91 28C91 28.5523 91.4477 29 92 29Z" fill="#CCCCCC"/>
<path d="M95 29C95.5523 29 96 28.5523 96 28C96 27.4477 95.5523 27 95 27C94.4477 27 94 27.4477 94 28C94 28.5523 94.4477 29 95 29Z" fill="#CCCCCC"/>
<path d="M98 29C98.5523 29 99 28.5523 99 28C99 27.4477 98.5523 27 98 27C97.4477 27 97 27.4477 97 28C97 28.5523 97.4477 29 98 29Z" fill="#CCCCCC"/>
<path d="M101 29C101.552 29 102 28.5523 102 28C102 27.4477 101.552 27 101 27C100.448 27 100 27.4477 100 28C100 28.5523 100.448 29 101 29Z" fill="#CCCCCC"/>
<path d="M104 29C104.552 29 105 28.5523 105 28C105 27.4477 104.552 27 104 27C103.448 27 103 27.4477 103 28C103 28.5523 103.448 29 104 29Z" fill="#CCCCCC"/>
<path d="M107 29C107.552 29 108 28.5523 108 28C108 27.4477 107.552 27 107 27C106.448 27 106 27.4477 106 28C106 28.5523 106.448 29 107 29Z" fill="#CCCCCC"/>
<path d="M110 29C110.552 29 111 28.5523 111 28C111 27.4477 110.552 27 110 27C109.448 27 109 27.4477 109 28C109 28.5523 109.448 29 110 29Z" fill="#CCCCCC"/>
<path d="M113 29C113.552 29 114 28.5523 114 28C114 27.4477 113.552 27 113 27C112.448 27 112 27.4477 112 28C112 28.5523 112.448 29 113 29Z" fill="#CCCCCC"/>
<path d="M80 29C80.5523 29 81 28.5523 81 28C81 27.4477 80.5523 27 80 27C79.4477 27 79 27.4477 79 28C79 28.5523 79.4477 29 80 29Z" fill="#CCCCCC"/>
<path d="M77 29C77.5523 29 78 28.5523 78 28C78 27.4477 77.5523 27 77 27C76.4477 27 76 27.4477 76 28C76 28.5523 76.4477 29 77 29Z" fill="#CCCCCC"/>
<path d="M74 29C74.5523 29 75 28.5523 75 28C75 27.4477 74.5523 27 74 27C73.4477 27 73 27.4477 73 28C73 28.5523 73.4477 29 74 29Z" fill="#CCCCCC"/>
<path d="M71 29C71.5523 29 72 28.5523 72 28C72 27.4477 71.5523 27 71 27C70.4477 27 70 27.4477 70 28C70 28.5523 70.4477 29 71 29Z" fill="#CCCCCC"/>
<path d="M68 29C68.5523 29 69 28.5523 69 28C69 27.4477 68.5523 27 68 27C67.4477 27 67 27.4477 67 28C67 28.5523 67.4477 29 68 29Z" fill="#CCCCCC"/>
<path d="M65 29C65.5523 29 66 28.5523 66 28C66 27.4477 65.5523 27 65 27C64.4477 27 64 27.4477 64 28C64 28.5523 64.4477 29 65 29Z" fill="#CCCCCC"/>
<path d="M62 29C62.5523 29 63 28.5523 63 28C63 27.4477 62.5523 27 62 27C61.4477 27 61 27.4477 61 28C61 28.5523 61.4477 29 62 29Z" fill="#CCCCCC"/>
<path d="M59 29C59.5523 29 60 28.5523 60 28C60 27.4477 59.5523 27 59 27C58.4477 27 58 27.4477 58 28C58 28.5523 58.4477 29 59 29Z" fill="#CCCCCC"/>
<path d="M83 29C83.5523 29 84 28.5523 84 28C84 27.4477 83.5523 27 83 27C82.4477 27 82 27.4477 82 28C82 28.5523 82.4477 29 83 29Z" fill="#CCCCCC"/>
<path d="M86 29C86.5523 29 87 28.5523 87 28C87 27.4477 86.5523 27 86 27C85.4477 27 85 27.4477 85 28C85 28.5523 85.4477 29 86 29Z" fill="#CCCCCC"/>
<path d="M89 29C89.5523 29 90 28.5523 90 28C90 27.4477 89.5523 27 89 27C88.4477 27 88 27.4477 88 28C88 28.5523 88.4477 29 89 29Z" fill="#CCCCCC"/>
<path d="M92 32C92.5523 32 93 31.5523 93 31C93 30.4477 92.5523 30 92 30C91.4477 30 91 30.4477 91 31C91 31.5523 91.4477 32 92 32Z" fill="#CCCCCC"/>
<path d="M95 32C95.5523 32 96 31.5523 96 31C96 30.4477 95.5523 30 95 30C94.4477 30 94 30.4477 94 31C94 31.5523 94.4477 32 95 32Z" fill="#CCCCCC"/>
<path d="M98 32C98.5523 32 99 31.5523 99 31C99 30.4477 98.5523 30 98 30C97.4477 30 97 30.4477 97 31C97 31.5523 97.4477 32 98 32Z" fill="#CCCCCC"/>
<path d="M101 32C101.552 32 102 31.5523 102 31C102 30.4477 101.552 30 101 30C100.448 30 100 30.4477 100 31C100 31.5523 100.448 32 101 32Z" fill="#CCCCCC"/>
<path d="M104 32C104.552 32 105 31.5523 105 31C105 30.4477 104.552 30 104 30C103.448 30 103 30.4477 103 31C103 31.5523 103.448 32 104 32Z" fill="#CCCCCC"/>
<path d="M107 32C107.552 32 108 31.5523 108 31C108 30.4477 107.552 30 107 30C106.448 30 106 30.4477 106 31C106 31.5523 106.448 32 107 32Z" fill="#CCCCCC"/>
<path d="M80 32C80.5523 32 81 31.5523 81 31C81 30.4477 80.5523 30 80 30C79.4477 30 79 30.4477 79 31C79 31.5523 79.4477 32 80 32Z" fill="#CCCCCC"/>
<path d="M77 32C77.5523 32 78 31.5523 78 31C78 30.4477 77.5523 30 77 30C76.4477 30 76 30.4477 76 31C76 31.5523 76.4477 32 77 32Z" fill="#CCCCCC"/>
<path d="M74 32C74.5523 32 75 31.5523 75 31C75 30.4477 74.5523 30 74 30C73.4477 30 73 30.4477 73 31C73 31.5523 73.4477 32 74 32Z" fill="#CCCCCC"/>
<path d="M71 32C71.5523 32 72 31.5523 72 31C72 30.4477 71.5523 30 71 30C70.4477 30 70 30.4477 70 31C70 31.5523 70.4477 32 71 32Z" fill="#CCCCCC"/>
<path d="M68 32C68.5523 32 69 31.5523 69 31C69 30.4477 68.5523 30 68 30C67.4477 30 67 30.4477 67 31C67 31.5523 67.4477 32 68 32Z" fill="#CCCCCC"/>
<path d="M65 32C65.5523 32 66 31.5523 66 31C66 30.4477 65.5523 30 65 30C64.4477 30 64 30.4477 64 31C64 31.5523 64.4477 32 65 32Z" fill="#CCCCCC"/>
<path d="M62 32C62.5523 32 63 31.5523 63 31C63 30.4477 62.5523 30 62 30C61.4477 30 61 30.4477 61 31C61 31.5523 61.4477 32 62 32Z" fill="#CCCCCC"/>
<path d="M59 32C59.5523 32 60 31.5523 60 31C60 30.4477 59.5523 30 59 30C58.4477 30 58 30.4477 58 31C58 31.5523 58.4477 32 59 32Z" fill="#CCCCCC"/>
<path d="M83 32C83.5523 32 84 31.5523 84 31C84 30.4477 83.5523 30 83 30C82.4477 30 82 30.4477 82 31C82 31.5523 82.4477 32 83 32Z" fill="#CCCCCC"/>
<path d="M86 32C86.5523 32 87 31.5523 87 31C87 30.4477 86.5523 30 86 30C85.4477 30 85 30.4477 85 31C85 31.5523 85.4477 32 86 32Z" fill="#CCCCCC"/>
<path d="M89 32C89.5523 32 90 31.5523 90 31C90 30.4477 89.5523 30 89 30C88.4477 30 88 30.4477 88 31C88 31.5523 88.4477 32 89 32Z" fill="#CCCCCC"/>
<path d="M92 35C92.5523 35 93 34.5523 93 34C93 33.4477 92.5523 33 92 33C91.4477 33 91 33.4477 91 34C91 34.5523 91.4477 35 92 35Z" fill="#CCCCCC"/>
<path d="M95 35C95.5523 35 96 34.5523 96 34C96 33.4477 95.5523 33 95 33C94.4477 33 94 33.4477 94 34C94 34.5523 94.4477 35 95 35Z" fill="#CCCCCC"/>
<path d="M98 35C98.5523 35 99 34.5523 99 34C99 33.4477 98.5523 33 98 33C97.4477 33 97 33.4477 97 34C97 34.5523 97.4477 35 98 35Z" fill="#CCCCCC"/>
<path d="M101 35C101.552 35 102 34.5523 102 34C102 33.4477 101.552 33 101 33C100.448 33 100 33.4477 100 34C100 34.5523 100.448 35 101 35Z" fill="#CCCCCC"/>
<path d="M104 35C104.552 35 105 34.5523 105 34C105 33.4477 104.552 33 104 33C103.448 33 103 33.4477 103 34C103 34.5523 103.448 35 104 35Z" fill="#CCCCCC"/>
<path d="M107 35C107.552 35 108 34.5523 108 34C108 33.4477 107.552 33 107 33C106.448 33 106 33.4477 106 34C106 34.5523 106.448 35 107 35Z" fill="#CCCCCC"/>
<path d="M80 35C80.5523 35 81 34.5523 81 34C81 33.4477 80.5523 33 80 33C79.4477 33 79 33.4477 79 34C79 34.5523 79.4477 35 80 35Z" fill="#CCCCCC"/>
<path d="M77 35C77.5523 35 78 34.5523 78 34C78 33.4477 77.5523 33 77 33C76.4477 33 76 33.4477 76 34C76 34.5523 76.4477 35 77 35Z" fill="#CCCCCC"/>
<path d="M74 35C74.5523 35 75 34.5523 75 34C75 33.4477 74.5523 33 74 33C73.4477 33 73 33.4477 73 34C73 34.5523 73.4477 35 74 35Z" fill="#CCCCCC"/>
<path d="M71 35C71.5523 35 72 34.5523 72 34C72 33.4477 71.5523 33 71 33C70.4477 33 70 33.4477 70 34C70 34.5523 70.4477 35 71 35Z" fill="#CCCCCC"/>
<path d="M68 35C68.5523 35 69 34.5523 69 34C69 33.4477 68.5523 33 68 33C67.4477 33 67 33.4477 67 34C67 34.5523 67.4477 35 68 35Z" fill="#CCCCCC"/>
<path d="M65 35C65.5523 35 66 34.5523 66 34C66 33.4477 65.5523 33 65 33C64.4477 33 64 33.4477 64 34C64 34.5523 64.4477 35 65 35Z" fill="#CCCCCC"/>
<path d="M62 35C62.5523 35 63 34.5523 63 34C63 33.4477 62.5523 33 62 33C61.4477 33 61 33.4477 61 34C61 34.5523 61.4477 35 62 35Z" fill="#CCCCCC"/>
<path d="M59 35C59.5523 35 60 34.5523 60 34C60 33.4477 59.5523 33 59 33C58.4477 33 58 33.4477 58 34C58 34.5523 58.4477 35 59 35Z" fill="#CCCCCC"/>
<path d="M83 35C83.5523 35 84 34.5523 84 34C84 33.4477 83.5523 33 83 33C82.4477 33 82 33.4477 82 34C82 34.5523 82.4477 35 83 35Z" fill="#CCCCCC"/>
<path d="M86 35C86.5523 35 87 34.5523 87 34C87 33.4477 86.5523 33 86 33C85.4477 33 85 33.4477 85 34C85 34.5523 85.4477 35 86 35Z" fill="#CCCCCC"/>
<path d="M89 35C89.5523 35 90 34.5523 90 34C90 33.4477 89.5523 33 89 33C88.4477 33 88 33.4477 88 34C88 34.5523 88.4477 35 89 35Z" fill="#CCCCCC"/>
<path d="M92 38C92.5523 38 93 37.5523 93 37C93 36.4477 92.5523 36 92 36C91.4477 36 91 36.4477 91 37C91 37.5523 91.4477 38 92 38Z" fill="#CCCCCC"/>
<path d="M95 38C95.5523 38 96 37.5523 96 37C96 36.4477 95.5523 36 95 36C94.4477 36 94 36.4477 94 37C94 37.5523 94.4477 38 95 38Z" fill="#CCCCCC"/>
<path d="M98 38C98.5523 38 99 37.5523 99 37C99 36.4477 98.5523 36 98 36C97.4477 36 97 36.4477 97 37C97 37.5523 97.4477 38 98 38Z" fill="#CCCCCC"/>
<path d="M101 38C101.552 38 102 37.5523 102 37C102 36.4477 101.552 36 101 36C100.448 36 100 36.4477 100 37C100 37.5523 100.448 38 101 38Z" fill="#CCCCCC"/>
<path d="M104 38C104.552 38 105 37.5523 105 37C105 36.4477 104.552 36 104 36C103.448 36 103 36.4477 103 37C103 37.5523 103.448 38 104 38Z" fill="#CCCCCC"/>
<path d="M107 38C107.552 38 108 37.5523 108 37C108 36.4477 107.552 36 107 36C106.448 36 106 36.4477 106 37C106 37.5523 106.448 38 107 38Z" fill="#CCCCCC"/>
<path d="M110 35C110.552 35 111 34.5523 111 34C111 33.4477 110.552 33 110 33C109.448 33 109 33.4477 109 34C109 34.5523 109.448 35 110 35Z" fill="#CCCCCC"/>
<path d="M110 38C110.552 38 111 37.5523 111 37C111 36.4477 110.552 36 110 36C109.448 36 109 36.4477 109 37C109 37.5523 109.448 38 110 38Z" fill="#CCCCCC"/>
<path d="M80 38C80.5523 38 81 37.5523 81 37C81 36.4477 80.5523 36 80 36C79.4477 36 79 36.4477 79 37C79 37.5523 79.4477 38 80 38Z" fill="#CCCCCC"/>
<path d="M77 38C77.5523 38 78 37.5523 78 37C78 36.4477 77.5523 36 77 36C76.4477 36 76 36.4477 76 37C76 37.5523 76.4477 38 77 38Z" fill="#CCCCCC"/>
<path d="M74 38C74.5523 38 75 37.5523 75 37C75 36.4477 74.5523 36 74 36C73.4477 36 73 36.4477 73 37C73 37.5523 73.4477 38 74 38Z" fill="#CCCCCC"/>
<path d="M71 38C71.5523 38 72 37.5523 72 37C72 36.4477 71.5523 36 71 36C70.4477 36 70 36.4477 70 37C70 37.5523 70.4477 38 71 38Z" fill="#CCCCCC"/>
<path d="M68 38C68.5523 38 69 37.5523 69 37C69 36.4477 68.5523 36 68 36C67.4477 36 67 36.4477 67 37C67 37.5523 67.4477 38 68 38Z" fill="#CCCCCC"/>
<path d="M65 38C65.5523 38 66 37.5523 66 37C66 36.4477 65.5523 36 65 36C64.4477 36 64 36.4477 64 37C64 37.5523 64.4477 38 65 38Z" fill="#CCCCCC"/>
<path d="M62 38C62.5523 38 63 37.5523 63 37C63 36.4477 62.5523 36 62 36C61.4477 36 61 36.4477 61 37C61 37.5523 61.4477 38 62 38Z" fill="#CCCCCC"/>
<path d="M59 38C59.5523 38 60 37.5523 60 37C60 36.4477 59.5523 36 59 36C58.4477 36 58 36.4477 58 37C58 37.5523 58.4477 38 59 38Z" fill="#CCCCCC"/>
<path d="M83 38C83.5523 38 84 37.5523 84 37C84 36.4477 83.5523 36 83 36C82.4477 36 82 36.4477 82 37C82 37.5523 82.4477 38 83 38Z" fill="#CCCCCC"/>
<path d="M86 38C86.5523 38 87 37.5523 87 37C87 36.4477 86.5523 36 86 36C85.4477 36 85 36.4477 85 37C85 37.5523 85.4477 38 86 38Z" fill="#CCCCCC"/>
<path d="M89 38C89.5523 38 90 37.5523 90 37C90 36.4477 89.5523 36 89 36C88.4477 36 88 36.4477 88 37C88 37.5523 88.4477 38 89 38Z" fill="#CCCCCC"/>
<path d="M92 41C92.5523 41 93 40.5523 93 40C93 39.4477 92.5523 39 92 39C91.4477 39 91 39.4477 91 40C91 40.5523 91.4477 41 92 41Z" fill="#CCCCCC"/>
<path d="M95 41C95.5523 41 96 40.5523 96 40C96 39.4477 95.5523 39 95 39C94.4477 39 94 39.4477 94 40C94 40.5523 94.4477 41 95 41Z" fill="#CCCCCC"/>
<path d="M98 41C98.5523 41 99 40.5523 99 40C99 39.4477 98.5523 39 98 39C97.4477 39 97 39.4477 97 40C97 40.5523 97.4477 41 98 41Z" fill="#CCCCCC"/>
<path d="M101 41C101.552 41 102 40.5523 102 40C102 39.4477 101.552 39 101 39C100.448 39 100 39.4477 100 40C100 40.5523 100.448 41 101 41Z" fill="#CCCCCC"/>
<path d="M104 41C104.552 41 105 40.5523 105 40C105 39.4477 104.552 39 104 39C103.448 39 103 39.4477 103 40C103 40.5523 103.448 41 104 41Z" fill="#CCCCCC"/>
<path d="M107 41C107.552 41 108 40.5523 108 40C108 39.4477 107.552 39 107 39C106.448 39 106 39.4477 106 40C106 40.5523 106.448 41 107 41Z" fill="#CCCCCC"/>
<path d="M80 41C80.5523 41 81 40.5523 81 40C81 39.4477 80.5523 39 80 39C79.4477 39 79 39.4477 79 40C79 40.5523 79.4477 41 80 41Z" fill="#CCCCCC"/>
<path d="M77 41C77.5523 41 78 40.5523 78 40C78 39.4477 77.5523 39 77 39C76.4477 39 76 39.4477 76 40C76 40.5523 76.4477 41 77 41Z" fill="#CCCCCC"/>
<path d="M74 41C74.5523 41 75 40.5523 75 40C75 39.4477 74.5523 39 74 39C73.4477 39 73 39.4477 73 40C73 40.5523 73.4477 41 74 41Z" fill="#CCCCCC"/>
<path d="M71 41C71.5523 41 72 40.5523 72 40C72 39.4477 71.5523 39 71 39C70.4477 39 70 39.4477 70 40C70 40.5523 70.4477 41 71 41Z" fill="#CCCCCC"/>
<path d="M68 41C68.5523 41 69 40.5523 69 40C69 39.4477 68.5523 39 68 39C67.4477 39 67 39.4477 67 40C67 40.5523 67.4477 41 68 41Z" fill="#CCCCCC"/>
<path d="M65 41C65.5523 41 66 40.5523 66 40C66 39.4477 65.5523 39 65 39C64.4477 39 64 39.4477 64 40C64 40.5523 64.4477 41 65 41Z" fill="#CCCCCC"/>
<path d="M62 41C62.5523 41 63 40.5523 63 40C63 39.4477 62.5523 39 62 39C61.4477 39 61 39.4477 61 40C61 40.5523 61.4477 41 62 41Z" fill="#CCCCCC"/>
<path d="M59 41C59.5523 41 60 40.5523 60 40C60 39.4477 59.5523 39 59 39C58.4477 39 58 39.4477 58 40C58 40.5523 58.4477 41 59 41Z" fill="#CCCCCC"/>
<path d="M83 41C83.5523 41 84 40.5523 84 40C84 39.4477 83.5523 39 83 39C82.4477 39 82 39.4477 82 40C82 40.5523 82.4477 41 83 41Z" fill="#CCCCCC"/>
<path d="M86 41C86.5523 41 87 40.5523 87 40C87 39.4477 86.5523 39 86 39C85.4477 39 85 39.4477 85 40C85 40.5523 85.4477 41 86 41Z" fill="#CCCCCC"/>
<path d="M89 41C89.5523 41 90 40.5523 90 40C90 39.4477 89.5523 39 89 39C88.4477 39 88 39.4477 88 40C88 40.5523 88.4477 41 89 41Z" fill="#CCCCCC"/>
<path d="M92 44C92.5523 44 93 43.5523 93 43C93 42.4477 92.5523 42 92 42C91.4477 42 91 42.4477 91 43C91 43.5523 91.4477 44 92 44Z" fill="#CCCCCC"/>
<path d="M95 44C95.5523 44 96 43.5523 96 43C96 42.4477 95.5523 42 95 42C94.4477 42 94 42.4477 94 43C94 43.5523 94.4477 44 95 44Z" fill="#CCCCCC"/>
<path d="M98 44C98.5523 44 99 43.5523 99 43C99 42.4477 98.5523 42 98 42C97.4477 42 97 42.4477 97 43C97 43.5523 97.4477 44 98 44Z" fill="#CCCCCC"/>
<path d="M101 44C101.552 44 102 43.5523 102 43C102 42.4477 101.552 42 101 42C100.448 42 100 42.4477 100 43C100 43.5523 100.448 44 101 44Z" fill="#CCCCCC"/>
<path d="M80 44C80.5523 44 81 43.5523 81 43C81 42.4477 80.5523 42 80 42C79.4477 42 79 42.4477 79 43C79 43.5523 79.4477 44 80 44Z" fill="#CCCCCC"/>
<path d="M77 44C77.5523 44 78 43.5523 78 43C78 42.4477 77.5523 42 77 42C76.4477 42 76 42.4477 76 43C76 43.5523 76.4477 44 77 44Z" fill="#CCCCCC"/>
<path d="M74 44C74.5523 44 75 43.5523 75 43C75 42.4477 74.5523 42 74 42C73.4477 42 73 42.4477 73 43C73 43.5523 73.4477 44 74 44Z" fill="#CCCCCC"/>
<path d="M71 44C71.5523 44 72 43.5523 72 43C72 42.4477 71.5523 42 71 42C70.4477 42 70 42.4477 70 43C70 43.5523 70.4477 44 71 44Z" fill="#CCCCCC"/>
<path d="M68 44C68.5523 44 69 43.5523 69 43C69 42.4477 68.5523 42 68 42C67.4477 42 67 42.4477 67 43C67 43.5523 67.4477 44 68 44Z" fill="#CCCCCC"/>
<path d="M65 44C65.5523 44 66 43.5523 66 43C66 42.4477 65.5523 42 65 42C64.4477 42 64 42.4477 64 43C64 43.5523 64.4477 44 65 44Z" fill="#CCCCCC"/>
<path d="M62 44C62.5523 44 63 43.5523 63 43C63 42.4477 62.5523 42 62 42C61.4477 42 61 42.4477 61 43C61 43.5523 61.4477 44 62 44Z" fill="#CCCCCC"/>
<path d="M59 44C59.5523 44 60 43.5523 60 43C60 42.4477 59.5523 42 59 42C58.4477 42 58 42.4477 58 43C58 43.5523 58.4477 44 59 44Z" fill="#CCCCCC"/>
<path d="M56 35C56.5523 35 57 34.5523 57 34C57 33.4477 56.5523 33 56 33C55.4477 33 55 33.4477 55 34C55 34.5523 55.4477 35 56 35Z" fill="#CCCCCC"/>
<path d="M56 38C56.5523 38 57 37.5523 57 37C57 36.4477 56.5523 36 56 36C55.4477 36 55 36.4477 55 37C55 37.5523 55.4477 38 56 38Z" fill="#CCCCCC"/>
<path d="M56 41C56.5523 41 57 40.5523 57 40C57 39.4477 56.5523 39 56 39C55.4477 39 55 39.4477 55 40C55 40.5523 55.4477 41 56 41Z" fill="#CCCCCC"/>
<path d="M56 44C56.5523 44 57 43.5523 57 43C57 42.4477 56.5523 42 56 42C55.4477 42 55 42.4477 55 43C55 43.5523 55.4477 44 56 44Z" fill="#CCCCCC"/>
<path d="M53 35C53.5523 35 54 34.5523 54 34C54 33.4477 53.5523 33 53 33C52.4477 33 52 33.4477 52 34C52 34.5523 52.4477 35 53 35Z" fill="#CCCCCC"/>
<path d="M53 32C53.5523 32 54 31.5523 54 31C54 30.4477 53.5523 30 53 30C52.4477 30 52 30.4477 52 31C52 31.5523 52.4477 32 53 32Z" fill="#CCCCCC"/>
<path d="M53 38C53.5523 38 54 37.5523 54 37C54 36.4477 53.5523 36 53 36C52.4477 36 52 36.4477 52 37C52 37.5523 52.4477 38 53 38Z" fill="#CCCCCC"/>
<path d="M53 41C53.5523 41 54 40.5523 54 40C54 39.4477 53.5523 39 53 39C52.4477 39 52 39.4477 52 40C52 40.5523 52.4477 41 53 41Z" fill="#CCCCCC"/>
<path d="M53 44C53.5523 44 54 43.5523 54 43C54 42.4477 53.5523 42 53 42C52.4477 42 52 42.4477 52 43C52 43.5523 52.4477 44 53 44Z" fill="#CCCCCC"/>
<path d="M50 38C50.5523 38 51 37.5523 51 37C51 36.4477 50.5523 36 50 36C49.4477 36 49 36.4477 49 37C49 37.5523 49.4477 38 50 38Z" fill="#CCCCCC"/>
<path d="M50 41C50.5523 41 51 40.5523 51 40C51 39.4477 50.5523 39 50 39C49.4477 39 49 39.4477 49 40C49 40.5523 49.4477 41 50 41Z" fill="#CCCCCC"/>
<path d="M50 44C50.5523 44 51 43.5523 51 43C51 42.4477 50.5523 42 50 42C49.4477 42 49 42.4477 49 43C49 43.5523 49.4477 44 50 44Z" fill="#CCCCCC"/>
<path d="M83 44C83.5523 44 84 43.5523 84 43C84 42.4477 83.5523 42 83 42C82.4477 42 82 42.4477 82 43C82 43.5523 82.4477 44 83 44Z" fill="#CCCCCC"/>
<path d="M86 44C86.5523 44 87 43.5523 87 43C87 42.4477 86.5523 42 86 42C85.4477 42 85 42.4477 85 43C85 43.5523 85.4477 44 86 44Z" fill="#CCCCCC"/>
<path d="M89 44C89.5523 44 90 43.5523 90 43C90 42.4477 89.5523 42 89 42C88.4477 42 88 42.4477 88 43C88 43.5523 88.4477 44 89 44Z" fill="#333333"/>
<path d="M92 47C92.5523 47 93 46.5523 93 46C93 45.4477 92.5523 45 92 45C91.4477 45 91 45.4477 91 46C91 46.5523 91.4477 47 92 47Z" fill="#CCCCCC"/>
<path d="M95 47C95.5523 47 96 46.5523 96 46C96 45.4477 95.5523 45 95 45C94.4477 45 94 45.4477 94 46C94 46.5523 94.4477 47 95 47Z" fill="#CCCCCC"/>
<path d="M92 50C92.5523 50 93 49.5523 93 49C93 48.4477 92.5523 48 92 48C91.4477 48 91 48.4477 91 49C91 49.5523 91.4477 50 92 50Z" fill="#CCCCCC"/>
<path d="M95 50C95.5523 50 96 49.5523 96 49C96 48.4477 95.5523 48 95 48C94.4477 48 94 48.4477 94 49C94 49.5523 94.4477 50 95 50Z" fill="#CCCCCC"/>
<path d="M101 50C101.552 50 102 49.5523 102 49C102 48.4477 101.552 48 101 48C100.448 48 100 48.4477 100 49C100 49.5523 100.448 50 101 50Z" fill="#CCCCCC"/>
<path d="M101 53C101.552 53 102 52.5523 102 52C102 51.4477 101.552 51 101 51C100.448 51 100 51.4477 100 52C100 52.5523 100.448 53 101 53Z" fill="#CCCCCC"/>
<path d="M98 47C98.5523 47 99 46.5523 99 46C99 45.4477 98.5523 45 98 45C97.4477 45 97 45.4477 97 46C97 46.5523 97.4477 47 98 47Z" fill="#CCCCCC"/>
<path d="M101 47C101.552 47 102 46.5523 102 46C102 45.4477 101.552 45 101 45C100.448 45 100 45.4477 100 46C100 46.5523 100.448 47 101 47Z" fill="#CCCCCC"/>
<path d="M92 56C92.5523 56 93 55.5523 93 55C93 54.4477 92.5523 54 92 54C91.4477 54 91 54.4477 91 55C91 55.5523 91.4477 56 92 56Z" fill="#CCCCCC"/>
<path d="M95 56C95.5523 56 96 55.5523 96 55C96 54.4477 95.5523 54 95 54C94.4477 54 94 54.4477 94 55C94 55.5523 94.4477 56 95 56Z" fill="#CCCCCC"/>
<path d="M98 56C98.5523 56 99 55.5523 99 55C99 54.4477 98.5523 54 98 54C97.4477 54 97 54.4477 97 55C97 55.5523 97.4477 56 98 56Z" fill="#CCCCCC"/>
<path d="M101 56C101.552 56 102 55.5523 102 55C102 54.4477 101.552 54 101 54C100.448 54 100 54.4477 100 55C100 55.5523 100.448 56 101 56Z" fill="#CCCCCC"/>
<path d="M95 59C95.5523 59 96 58.5523 96 58C96 57.4477 95.5523 57 95 57C94.4477 57 94 57.4477 94 58C94 58.5523 94.4477 59 95 59Z" fill="#CCCCCC"/>
<path d="M98 59C98.5523 59 99 58.5523 99 58C99 57.4477 98.5523 57 98 57C97.4477 57 97 57.4477 97 58C97 58.5523 97.4477 59 98 59Z" fill="#CCCCCC"/>
<path d="M101 59C101.552 59 102 58.5523 102 58C102 57.4477 101.552 57 101 57C100.448 57 100 57.4477 100 58C100 58.5523 100.448 59 101 59Z" fill="#CCCCCC"/>
<path d="M80 47C80.5523 47 81 46.5523 81 46C81 45.4477 80.5523 45 80 45C79.4477 45 79 45.4477 79 46C79 46.5523 79.4477 47 80 47Z" fill="#CCCCCC"/>
<path d="M77 47C77.5523 47 78 46.5523 78 46C78 45.4477 77.5523 45 77 45C76.4477 45 76 45.4477 76 46C76 46.5523 76.4477 47 77 47Z" fill="#CCCCCC"/>
<path d="M74 47C74.5523 47 75 46.5523 75 46C75 45.4477 74.5523 45 74 45C73.4477 45 73 45.4477 73 46C73 46.5523 73.4477 47 74 47Z" fill="#CCCCCC"/>
<path d="M71 47C71.5523 47 72 46.5523 72 46C72 45.4477 71.5523 45 71 45C70.4477 45 70 45.4477 70 46C70 46.5523 70.4477 47 71 47Z" fill="#CCCCCC"/>
<path d="M68 47C68.5523 47 69 46.5523 69 46C69 45.4477 68.5523 45 68 45C67.4477 45 67 45.4477 67 46C67 46.5523 67.4477 47 68 47Z" fill="#CCCCCC"/>
<path d="M65 47C65.5523 47 66 46.5523 66 46C66 45.4477 65.5523 45 65 45C64.4477 45 64 45.4477 64 46C64 46.5523 64.4477 47 65 47Z" fill="#CCCCCC"/>
<path d="M62 47C62.5523 47 63 46.5523 63 46C63 45.4477 62.5523 45 62 45C61.4477 45 61 45.4477 61 46C61 46.5523 61.4477 47 62 47Z" fill="#CCCCCC"/>
<path d="M59 47C59.5523 47 60 46.5523 60 46C60 45.4477 59.5523 45 59 45C58.4477 45 58 45.4477 58 46C58 46.5523 58.4477 47 59 47Z" fill="#CCCCCC"/>
<path d="M56 47C56.5523 47 57 46.5523 57 46C57 45.4477 56.5523 45 56 45C55.4477 45 55 45.4477 55 46C55 46.5523 55.4477 47 56 47Z" fill="#CCCCCC"/>
<path d="M54 47C54.5523 47 55 46.5523 55 46C55 45.4477 54.5523 45 54 45C53.4477 45 53 45.4477 53 46C53 46.5523 53.4477 47 54 47Z" fill="#CCCCCC"/>
<path d="M83 47C83.5523 47 84 46.5523 84 46C84 45.4477 83.5523 45 83 45C82.4477 45 82 45.4477 82 46C82 46.5523 82.4477 47 83 47Z" fill="#CCCCCC"/>
<path d="M86 47C86.5523 47 87 46.5523 87 46C87 45.4477 86.5523 45 86 45C85.4477 45 85 45.4477 85 46C85 46.5523 85.4477 47 86 47Z" fill="#CCCCCC"/>
<path d="M80 50C80.5523 50 81 49.5523 81 49C81 48.4477 80.5523 48 80 48C79.4477 48 79 48.4477 79 49C79 49.5523 79.4477 50 80 50Z" fill="#CCCCCC"/>
<path d="M77 50C77.5523 50 78 49.5523 78 49C78 48.4477 77.5523 48 77 48C76.4477 48 76 48.4477 76 49C76 49.5523 76.4477 50 77 50Z" fill="#CCCCCC"/>
<path d="M74 50C74.5523 50 75 49.5523 75 49C75 48.4477 74.5523 48 74 48C73.4477 48 73 48.4477 73 49C73 49.5523 73.4477 50 74 50Z" fill="#CCCCCC"/>
<path d="M71 50C71.5523 50 72 49.5523 72 49C72 48.4477 71.5523 48 71 48C70.4477 48 70 48.4477 70 49C70 49.5523 70.4477 50 71 50Z" fill="#CCCCCC"/>
<path d="M68 50C68.5523 50 69 49.5523 69 49C69 48.4477 68.5523 48 68 48C67.4477 48 67 48.4477 67 49C67 49.5523 67.4477 50 68 50Z" fill="#CCCCCC"/>
<path d="M65 50C65.5523 50 66 49.5523 66 49C66 48.4477 65.5523 48 65 48C64.4477 48 64 48.4477 64 49C64 49.5523 64.4477 50 65 50Z" fill="#CCCCCC"/>
<path d="M62 50C62.5523 50 63 49.5523 63 49C63 48.4477 62.5523 48 62 48C61.4477 48 61 48.4477 61 49C61 49.5523 61.4477 50 62 50Z" fill="#CCCCCC"/>
<path d="M59 50C59.5523 50 60 49.5523 60 49C60 48.4477 59.5523 48 59 48C58.4477 48 58 48.4477 58 49C58 49.5523 58.4477 50 59 50Z" fill="#CCCCCC"/>
<path d="M56 50C56.5523 50 57 49.5523 57 49C57 48.4477 56.5523 48 56 48C55.4477 48 55 48.4477 55 49C55 49.5523 55.4477 50 56 50Z" fill="#CCCCCC"/>
<path d="M54 50C54.5523 50 55 49.5523 55 49C55 48.4477 54.5523 48 54 48C53.4477 48 53 48.4477 53 49C53 49.5523 53.4477 50 54 50Z" fill="#CCCCCC"/>
<path d="M83 50C83.5523 50 84 49.5523 84 49C84 48.4477 83.5523 48 83 48C82.4477 48 82 48.4477 82 49C82 49.5523 82.4477 50 83 50Z" fill="#CCCCCC"/>
<path d="M86 50C86.5523 50 87 49.5523 87 49C87 48.4477 86.5523 48 86 48C85.4477 48 85 48.4477 85 49C85 49.5523 85.4477 50 86 50Z" fill="#CCCCCC"/>
<path d="M80 53C80.5523 53 81 52.5523 81 52C81 51.4477 80.5523 51 80 51C79.4477 51 79 51.4477 79 52C79 52.5523 79.4477 53 80 53Z" fill="#CCCCCC"/>
<path d="M77 53C77.5523 53 78 52.5523 78 52C78 51.4477 77.5523 51 77 51C76.4477 51 76 51.4477 76 52C76 52.5523 76.4477 53 77 53Z" fill="#CCCCCC"/>
<path d="M74 53C74.5523 53 75 52.5523 75 52C75 51.4477 74.5523 51 74 51C73.4477 51 73 51.4477 73 52C73 52.5523 73.4477 53 74 53Z" fill="#CCCCCC"/>
<path d="M71 53C71.5523 53 72 52.5523 72 52C72 51.4477 71.5523 51 71 51C70.4477 51 70 51.4477 70 52C70 52.5523 70.4477 53 71 53Z" fill="#CCCCCC"/>
<path d="M68 53C68.5523 53 69 52.5523 69 52C69 51.4477 68.5523 51 68 51C67.4477 51 67 51.4477 67 52C67 52.5523 67.4477 53 68 53Z" fill="#CCCCCC"/>
<path d="M65 53C65.5523 53 66 52.5523 66 52C66 51.4477 65.5523 51 65 51C64.4477 51 64 51.4477 64 52C64 52.5523 64.4477 53 65 53Z" fill="#CCCCCC"/>
<path d="M62 53C62.5523 53 63 52.5523 63 52C63 51.4477 62.5523 51 62 51C61.4477 51 61 51.4477 61 52C61 52.5523 61.4477 53 62 53Z" fill="#CCCCCC"/>
<path d="M59 53C59.5523 53 60 52.5523 60 52C60 51.4477 59.5523 51 59 51C58.4477 51 58 51.4477 58 52C58 52.5523 58.4477 53 59 53Z" fill="#CCCCCC"/>
<path d="M56 53C56.5523 53 57 52.5523 57 52C57 51.4477 56.5523 51 56 51C55.4477 51 55 51.4477 55 52C55 52.5523 55.4477 53 56 53Z" fill="#CCCCCC"/>
<path d="M54 53C54.5523 53 55 52.5523 55 52C55 51.4477 54.5523 51 54 51C53.4477 51 53 51.4477 53 52C53 52.5523 53.4477 53 54 53Z" fill="#CCCCCC"/>
<path d="M83 53C83.5523 53 84 52.5523 84 52C84 51.4477 83.5523 51 83 51C82.4477 51 82 51.4477 82 52C82 52.5523 82.4477 53 83 53Z" fill="#CCCCCC"/>
<path d="M86 53C86.5523 53 87 52.5523 87 52C87 51.4477 86.5523 51 86 51C85.4477 51 85 51.4477 85 52C85 52.5523 85.4477 53 86 53Z" fill="#CCCCCC"/>
<path d="M89 47C89.5523 47 90 46.5523 90 46C90 45.4477 89.5523 45 89 45C88.4477 45 88 45.4477 88 46C88 46.5523 88.4477 47 89 47Z" fill="#CCCCCC"/>
<path d="M110 17C110.552 17 111 16.5523 111 16C111 15.4477 110.552 15 110 15C109.448 15 109 15.4477 109 16C109 16.5523 109.448 17 110 17Z" fill="#CCCCCC"/>
<path d="M107 17C107.552 17 108 16.5523 108 16C108 15.4477 107.552 15 107 15C106.448 15 106 15.4477 106 16C106 16.5523 106.448 17 107 17Z" fill="#CCCCCC"/>
<path d="M77 17C77.5523 17 78 16.5523 78 16C78 15.4477 77.5523 15 77 15C76.4477 15 76 15.4477 76 16C76 16.5523 76.4477 17 77 17Z" fill="#CCCCCC"/>
<path d="M80 17C80.5523 17 81 16.5523 81 16C81 15.4477 80.5523 15 80 15C79.4477 15 79 15.4477 79 16C79 16.5523 79.4477 17 80 17Z" fill="#CCCCCC"/>
<path d="M62 14C62.5523 14 63 13.5523 63 13C63 12.4477 62.5523 12 62 12C61.4477 12 61 12.4477 61 13C61 13.5523 61.4477 14 62 14Z" fill="#CCCCCC"/>
<path d="M65 14C65.5523 14 66 13.5523 66 13C66 12.4477 65.5523 12 65 12C64.4477 12 64 12.4477 64 13C64 13.5523 64.4477 14 65 14Z" fill="#CCCCCC"/>
<path d="M36 20C36.5523 20 37 19.5523 37 19C37 18.4477 36.5523 18 36 18C35.4477 18 35 18.4477 35 19C35 19.5523 35.4477 20 36 20Z" fill="#CCCCCC"/>
<path d="M39 20C39.5523 20 40 19.5523 40 19C40 18.4477 39.5523 18 39 18C38.4477 18 38 18.4477 38 19C38 19.5523 38.4477 20 39 20Z" fill="#CCCCCC"/>
<path d="M42 20C42.5523 20 43 19.5523 43 19C43 18.4477 42.5523 18 42 18C41.4477 18 41 18.4477 41 19C41 19.5523 41.4477 20 42 20Z" fill="#CCCCCC"/>
<path d="M45 20C45.5523 20 46 19.5523 46 19C46 18.4477 45.5523 18 45 18C44.4477 18 44 18.4477 44 19C44 19.5523 44.4477 20 45 20Z" fill="#CCCCCC"/>
<path d="M48 20C48.5523 20 49 19.5523 49 19C49 18.4477 48.5523 18 48 18C47.4477 18 47 18.4477 47 19C47 19.5523 47.4477 20 48 20Z" fill="#CCCCCC"/>
<path d="M36 23C36.5523 23 37 22.5523 37 22C37 21.4477 36.5523 21 36 21C35.4477 21 35 21.4477 35 22C35 22.5523 35.4477 23 36 23Z" fill="#CCCCCC"/>
<path d="M39 23C39.5523 23 40 22.5523 40 22C40 21.4477 39.5523 21 39 21C38.4477 21 38 21.4477 38 22C38 22.5523 38.4477 23 39 23Z" fill="#CCCCCC"/>
<path d="M42 23C42.5523 23 43 22.5523 43 22C43 21.4477 42.5523 21 42 21C41.4477 21 41 21.4477 41 22C41 22.5523 41.4477 23 42 23Z" fill="#CCCCCC"/>
<path d="M45 23C45.5523 23 46 22.5523 46 22C46 21.4477 45.5523 21 45 21C44.4477 21 44 21.4477 44 22C44 22.5523 44.4477 23 45 23Z" fill="#CCCCCC"/>
<path d="M48 23C48.5523 23 49 22.5523 49 22C49 21.4477 48.5523 21 48 21C47.4477 21 47 21.4477 47 22C47 22.5523 47.4477 23 48 23Z" fill="#CCCCCC"/>
<path d="M48 26C48.5523 26 49 25.5523 49 25C49 24.4477 48.5523 24 48 24C47.4477 24 47 24.4477 47 25C47 25.5523 47.4477 26 48 26Z" fill="#CCCCCC"/>
<path d="M36 26C36.5523 26 37 25.5523 37 25C37 24.4477 36.5523 24 36 24C35.4477 24 35 24.4477 35 25C35 25.5523 35.4477 26 36 26Z" fill="#CCCCCC"/>
<path d="M39 26C39.5523 26 40 25.5523 40 25C40 24.4477 39.5523 24 39 24C38.4477 24 38 24.4477 38 25C38 25.5523 38.4477 26 39 26Z" fill="#CCCCCC"/>
<path d="M36 29C36.5523 29 37 28.5523 37 28C37 27.4477 36.5523 27 36 27C35.4477 27 35 27.4477 35 28C35 28.5523 35.4477 29 36 29Z" fill="#CCCCCC"/>
<path d="M39 29C39.5523 29 40 28.5523 40 28C40 27.4477 39.5523 27 39 27C38.4477 27 38 27.4477 38 28C38 28.5523 38.4477 29 39 29Z" fill="#CCCCCC"/>
<path d="M21 17C21.5523 17 22 16.5523 22 16C22 15.4477 21.5523 15 21 15C20.4477 15 20 15.4477 20 16C20 16.5523 20.4477 17 21 17Z" fill="#CCCCCC"/>
<path d="M24 20C24.5523 20 25 19.5523 25 19C25 18.4477 24.5523 18 24 18C23.4477 18 23 18.4477 23 19C23 19.5523 23.4477 20 24 20Z" fill="#CCCCCC"/>
<path d="M6 26C6.55228 26 7 25.5523 7 25C7 24.4477 6.55228 24 6 24C5.44772 24 5 24.4477 5 25C5 25.5523 5.44772 26 6 26Z" fill="#CCCCCC"/>
<path d="M3 26C3.55228 26 4 25.5523 4 25C4 24.4477 3.55228 24 3 24C2.44772 24 2 24.4477 2 25C2 25.5523 2.44772 26 3 26Z" fill="#CCCCCC"/>
<path d="M9 26C9.55228 26 10 25.5523 10 25C10 24.4477 9.55228 24 9 24C8.44772 24 8 24.4477 8 25C8 25.5523 8.44772 26 9 26Z" fill="#333333"/>
<path d="M12 26C12.5523 26 13 25.5523 13 25C13 24.4477 12.5523 24 12 24C11.4477 24 11 24.4477 11 25C11 25.5523 11.4477 26 12 26Z" fill="#333333"/>
<path d="M15 26C15.5523 26 16 25.5523 16 25C16 24.4477 15.5523 24 15 24C14.4477 24 14 24.4477 14 25C14 25.5523 14.4477 26 15 26Z" fill="#CCCCCC"/>
<path d="M18 26C18.5523 26 19 25.5523 19 25C19 24.4477 18.5523 24 18 24C17.4477 24 17 24.4477 17 25C17 25.5523 17.4477 26 18 26Z" fill="#CCCCCC"/>
<path d="M6 29C6.55228 29 7 28.5523 7 28C7 27.4477 6.55228 27 6 27C5.44772 27 5 27.4477 5 28C5 28.5523 5.44772 29 6 29Z" fill="#333333"/>
<path d="M3 29C3.55228 29 4 28.5523 4 28C4 27.4477 3.55228 27 3 27C2.44772 27 2 27.4477 2 28C2 28.5523 2.44772 29 3 29Z" fill="#CCCCCC"/>
<path d="M9 29C9.55228 29 10 28.5523 10 28C10 27.4477 9.55228 27 9 27C8.44772 27 8 27.4477 8 28C8 28.5523 8.44772 29 9 29Z" fill="#CCCCCC"/>
<path d="M12 29C12.5523 29 13 28.5523 13 28C13 27.4477 12.5523 27 12 27C11.4477 27 11 27.4477 11 28C11 28.5523 11.4477 29 12 29Z" fill="#CCCCCC"/>
<path d="M15 29C15.5523 29 16 28.5523 16 28C16 27.4477 15.5523 27 15 27C14.4477 27 14 27.4477 14 28C14 28.5523 14.4477 29 15 29Z" fill="#333333"/>
<path d="M18 29C18.5523 29 19 28.5523 19 28C19 27.4477 18.5523 27 18 27C17.4477 27 17 27.4477 17 28C17 28.5523 17.4477 29 18 29Z" fill="#333333"/>
<path d="M6 32C6.55228 32 7 31.5523 7 31C7 30.4477 6.55228 30 6 30C5.44772 30 5 30.4477 5 31C5 31.5523 5.44772 32 6 32Z" fill="#333333"/>
<path d="M3 32C3.55228 32 4 31.5523 4 31C4 30.4477 3.55228 30 3 30C2.44772 30 2 30.4477 2 31C2 31.5523 2.44772 32 3 32Z" fill="#CCCCCC"/>
<path d="M9 32C9.55228 32 10 31.5523 10 31C10 30.4477 9.55228 30 9 30C8.44772 30 8 30.4477 8 31C8 31.5523 8.44772 32 9 32Z" fill="#CCCCCC"/>
<path d="M12 32C12.5523 32 13 31.5523 13 31C13 30.4477 12.5523 30 12 30C11.4477 30 11 30.4477 11 31C11 31.5523 11.4477 32 12 32Z" fill="#CCCCCC"/>
<path d="M15 32C15.5523 32 16 31.5523 16 31C16 30.4477 15.5523 30 15 30C14.4477 30 14 30.4477 14 31C14 31.5523 14.4477 32 15 32Z" fill="#CCCCCC"/>
<path d="M36 14C36.5523 14 37 13.5523 37 13C37 12.4477 36.5523 12 36 12C35.4477 12 35 12.4477 35 13C35 13.5523 35.4477 14 36 14Z" fill="#333333"/>
<path d="M18 32C18.5523 32 19 31.5523 19 31C19 30.4477 18.5523 30 18 30C17.4477 30 17 30.4477 17 31C17 31.5523 17.4477 32 18 32Z" fill="#333333"/>
<path d="M21 32C21.5523 32 22 31.5523 22 31C22 30.4477 21.5523 30 21 30C20.4477 30 20 30.4477 20 31C20 31.5523 20.4477 32 21 32Z" fill="#333333"/>
<path d="M24 32C24.5523 32 25 31.5523 25 31C25 30.4477 24.5523 30 24 30C23.4477 30 23 30.4477 23 31C23 31.5523 23.4477 32 24 32Z" fill="#CCCCCC"/>
<path d="M27 32C27.5523 32 28 31.5523 28 31C28 30.4477 27.5523 30 27 30C26.4477 30 26 30.4477 26 31C26 31.5523 26.4477 32 27 32Z" fill="#CCCCCC"/>
<path d="M30 32C30.5523 32 31 31.5523 31 31C31 30.4477 30.5523 30 30 30C29.4477 30 29 30.4477 29 31C29 31.5523 29.4477 32 30 32Z" fill="#CCCCCC"/>
<path d="M33 32C33.5523 32 34 31.5523 34 31C34 30.4477 33.5523 30 33 30C32.4477 30 32 30.4477 32 31C32 31.5523 32.4477 32 33 32Z" fill="#CCCCCC"/>
<path d="M6 35C6.55228 35 7 34.5523 7 34C7 33.4477 6.55228 33 6 33C5.44772 33 5 33.4477 5 34C5 34.5523 5.44772 35 6 35Z" fill="#CCCCCC"/>
<path d="M9 35C9.55228 35 10 34.5523 10 34C10 33.4477 9.55228 33 9 33C8.44772 33 8 33.4477 8 34C8 34.5523 8.44772 35 9 35Z" fill="#CCCCCC"/>
<path d="M12 35C12.5523 35 13 34.5523 13 34C13 33.4477 12.5523 33 12 33C11.4477 33 11 33.4477 11 34C11 34.5523 11.4477 35 12 35Z" fill="#CCCCCC"/>
<path d="M15 35C15.5523 35 16 34.5523 16 34C16 33.4477 15.5523 33 15 33C14.4477 33 14 33.4477 14 34C14 34.5523 14.4477 35 15 35Z" fill="#CCCCCC"/>
<path d="M18 35C18.5523 35 19 34.5523 19 34C19 33.4477 18.5523 33 18 33C17.4477 33 17 33.4477 17 34C17 34.5523 17.4477 35 18 35Z" fill="#CCCCCC"/>
<path d="M21 35C21.5523 35 22 34.5523 22 34C22 33.4477 21.5523 33 21 33C20.4477 33 20 33.4477 20 34C20 34.5523 20.4477 35 21 35Z" fill="#CCCCCC"/>
<path d="M24 35C24.5523 35 25 34.5523 25 34C25 33.4477 24.5523 33 24 33C23.4477 33 23 33.4477 23 34C23 34.5523 23.4477 35 24 35Z" fill="#333333"/>
<path d="M27 35C27.5523 35 28 34.5523 28 34C28 33.4477 27.5523 33 27 33C26.4477 33 26 33.4477 26 34C26 34.5523 26.4477 35 27 35Z" fill="#CCCCCC"/>
<path d="M30 35C30.5523 35 31 34.5523 31 34C31 33.4477 30.5523 33 30 33C29.4477 33 29 33.4477 29 34C29 34.5523 29.4477 35 30 35Z" fill="#CCCCCC"/>
<path d="M6 38C6.55228 38 7 37.5523 7 37C7 36.4477 6.55228 36 6 36C5.44772 36 5 36.4477 5 37C5 37.5523 5.44772 38 6 38Z" fill="#CCCCCC"/>
<path d="M9 38C9.55228 38 10 37.5523 10 37C10 36.4477 9.55228 36 9 36C8.44772 36 8 36.4477 8 37C8 37.5523 8.44772 38 9 38Z" fill="#CCCCCC"/>
<path d="M12 38C12.5523 38 13 37.5523 13 37C13 36.4477 12.5523 36 12 36C11.4477 36 11 36.4477 11 37C11 37.5523 11.4477 38 12 38Z" fill="#CCCCCC"/>
<path d="M15 38C15.5523 38 16 37.5523 16 37C16 36.4477 15.5523 36 15 36C14.4477 36 14 36.4477 14 37C14 37.5523 14.4477 38 15 38Z" fill="#CCCCCC"/>
<path d="M18 38C18.5523 38 19 37.5523 19 37C19 36.4477 18.5523 36 18 36C17.4477 36 17 36.4477 17 37C17 37.5523 17.4477 38 18 38Z" fill="#CCCCCC"/>
<path d="M21 38C21.5523 38 22 37.5523 22 37C22 36.4477 21.5523 36 21 36C20.4477 36 20 36.4477 20 37C20 37.5523 20.4477 38 21 38Z" fill="#CCCCCC"/>
<path d="M24 38C24.5523 38 25 37.5523 25 37C25 36.4477 24.5523 36 24 36C23.4477 36 23 36.4477 23 37C23 37.5523 23.4477 38 24 38Z" fill="#333333"/>
<path d="M27 38C27.5523 38 28 37.5523 28 37C28 36.4477 27.5523 36 27 36C26.4477 36 26 36.4477 26 37C26 37.5523 26.4477 38 27 38Z" fill="#CCCCCC"/>
<path d="M6 41C6.55228 41 7 40.5523 7 40C7 39.4477 6.55228 39 6 39C5.44772 39 5 39.4477 5 40C5 40.5523 5.44772 41 6 41Z" fill="#CCCCCC"/>
<path d="M9 41C9.55228 41 10 40.5523 10 40C10 39.4477 9.55228 39 9 39C8.44772 39 8 39.4477 8 40C8 40.5523 8.44772 41 9 41Z" fill="#CCCCCC"/>
<path d="M12 41C12.5523 41 13 40.5523 13 40C13 39.4477 12.5523 39 12 39C11.4477 39 11 39.4477 11 40C11 40.5523 11.4477 41 12 41Z" fill="#CCCCCC"/>
<path d="M15 41C15.5523 41 16 40.5523 16 40C16 39.4477 15.5523 39 15 39C14.4477 39 14 39.4477 14 40C14 40.5523 14.4477 41 15 41Z" fill="#CCCCCC"/>
<path d="M18 41C18.5523 41 19 40.5523 19 40C19 39.4477 18.5523 39 18 39C17.4477 39 17 39.4477 17 40C17 40.5523 17.4477 41 18 41Z" fill="#CCCCCC"/>
<path d="M21 41C21.5523 41 22 40.5523 22 40C22 39.4477 21.5523 39 21 39C20.4477 39 20 39.4477 20 40C20 40.5523 20.4477 41 21 41Z" fill="#CCCCCC"/>
<path d="M24 41C24.5523 41 25 40.5523 25 40C25 39.4477 24.5523 39 24 39C23.4477 39 23 39.4477 23 40C23 40.5523 23.4477 41 24 41Z" fill="#CCCCCC"/>
<path d="M9 44C9.55228 44 10 43.5523 10 43C10 42.4477 9.55228 42 9 42C8.44772 42 8 42.4477 8 43C8 43.5523 8.44772 44 9 44Z" fill="#CCCCCC"/>
<path d="M12 44C12.5523 44 13 43.5523 13 43C13 42.4477 12.5523 42 12 42C11.4477 42 11 42.4477 11 43C11 43.5523 11.4477 44 12 44Z" fill="#CCCCCC"/>
<path d="M15 44C15.5523 44 16 43.5523 16 43C16 42.4477 15.5523 42 15 42C14.4477 42 14 42.4477 14 43C14 43.5523 14.4477 44 15 44Z" fill="#CCCCCC"/>
<path d="M18 44C18.5523 44 19 43.5523 19 43C19 42.4477 18.5523 42 18 42C17.4477 42 17 42.4477 17 43C17 43.5523 17.4477 44 18 44Z" fill="#CCCCCC"/>
<path d="M18 50C18.5523 50 19 49.5523 19 49C19 48.4477 18.5523 48 18 48C17.4477 48 17 48.4477 17 49C17 49.5523 17.4477 50 18 50Z" fill="#CCCCCC"/>
<path d="M21 44C21.5523 44 22 43.5523 22 43C22 42.4477 21.5523 42 21 42C20.4477 42 20 42.4477 20 43C20 43.5523 20.4477 44 21 44Z" fill="#CCCCCC"/>
<path d="M24 44C24.5523 44 25 43.5523 25 43C25 42.4477 24.5523 42 24 42C23.4477 42 23 42.4477 23 43C23 43.5523 23.4477 44 24 44Z" fill="#CCCCCC"/>
<path d="M12 47C12.5523 47 13 46.5523 13 46C13 45.4477 12.5523 45 12 45C11.4477 45 11 45.4477 11 46C11 46.5523 11.4477 47 12 47Z" fill="#CCCCCC"/>
<path d="M15 47C15.5523 47 16 46.5523 16 46C16 45.4477 15.5523 45 15 45C14.4477 45 14 45.4477 14 46C14 46.5523 14.4477 47 15 47Z" fill="#CCCCCC"/>
<path d="M21 47C21.5523 47 22 46.5523 22 46C22 45.4477 21.5523 45 21 45C20.4477 45 20 45.4477 20 46C20 46.5523 20.4477 47 21 47Z" fill="#CCCCCC"/>
<path d="M24 47C24.5523 47 25 46.5523 25 46C25 45.4477 24.5523 45 24 45C23.4477 45 23 45.4477 23 46C23 46.5523 23.4477 47 24 47Z" fill="#CCCCCC"/>
<path d="M12 50C12.5523 50 13 49.5523 13 49C13 48.4477 12.5523 48 12 48C11.4477 48 11 48.4477 11 49C11 49.5523 11.4477 50 12 50Z" fill="#CCCCCC"/>
<path d="M15 50C15.5523 50 16 49.5523 16 49C16 48.4477 15.5523 48 15 48C14.4477 48 14 48.4477 14 49C14 49.5523 14.4477 50 15 50Z" fill="#CCCCCC"/>
<path d="M21 50C21.5523 50 22 49.5523 22 49C22 48.4477 21.5523 48 21 48C20.4477 48 20 48.4477 20 49C20 49.5523 20.4477 50 21 50Z" fill="#CCCCCC"/>
<path d="M24 50C24.5523 50 25 49.5523 25 49C25 48.4477 24.5523 48 24 48C23.4477 48 23 48.4477 23 49C23 49.5523 23.4477 50 24 50Z" fill="#CCCCCC"/>
<path d="M27 41C27.5523 41 28 40.5523 28 40C28 39.4477 27.5523 39 27 39C26.4477 39 26 39.4477 26 40C26 40.5523 26.4477 41 27 41Z" fill="#CCCCCC"/>
<path d="M18 53C18.5523 53 19 52.5523 19 52C19 51.4477 18.5523 51 18 51C17.4477 51 17 51.4477 17 52C17 52.5523 17.4477 53 18 53Z" fill="#CCCCCC"/>
<path d="M21 53C21.5523 53 22 52.5523 22 52C22 51.4477 21.5523 51 21 51C20.4477 51 20 51.4477 20 52C20 52.5523 20.4477 53 21 53Z" fill="#CCCCCC"/>
<path d="M24 53C24.5523 53 25 52.5523 25 52C25 51.4477 24.5523 51 24 51C23.4477 51 23 51.4477 23 52C23 52.5523 23.4477 53 24 53Z" fill="#CCCCCC"/>
<path d="M27 53C27.5523 53 28 52.5523 28 52C28 51.4477 27.5523 51 27 51C26.4477 51 26 51.4477 26 52C26 52.5523 26.4477 53 27 53Z" fill="#CCCCCC"/>
<path d="M30 53C30.5523 53 31 52.5523 31 52C31 51.4477 30.5523 51 30 51C29.4477 51 29 51.4477 29 52C29 52.5523 29.4477 53 30 53Z" fill="#CCCCCC"/>
<path d="M31 53C31.5523 53 32 52.5523 32 52C32 51.4477 31.5523 51 31 51C30.4477 51 30 51.4477 30 52C30 52.5523 30.4477 53 31 53Z" fill="#CCCCCC"/>
<path d="M34 53C34.5523 53 35 52.5523 35 52C35 51.4477 34.5523 51 34 51C33.4477 51 33 51.4477 33 52C33 52.5523 33.4477 53 34 53Z" fill="#CCCCCC"/>
<path d="M37 53C37.5523 53 38 52.5523 38 52C38 51.4477 37.5523 51 37 51C36.4477 51 36 51.4477 36 52C36 52.5523 36.4477 53 37 53Z" fill="#CCCCCC"/>
<path d="M27 56C27.5523 56 28 55.5523 28 55C28 54.4477 27.5523 54 27 54C26.4477 54 26 54.4477 26 55C26 55.5523 26.4477 56 27 56Z" fill="#CCCCCC"/>
<path d="M30 56C30.5523 56 31 55.5523 31 55C31 54.4477 30.5523 54 30 54C29.4477 54 29 54.4477 29 55C29 55.5523 29.4477 56 30 56Z" fill="#CCCCCC"/>
<path d="M31 56C31.5523 56 32 55.5523 32 55C32 54.4477 31.5523 54 31 54C30.4477 54 30 54.4477 30 55C30 55.5523 30.4477 56 31 56Z" fill="#CCCCCC"/>
<path d="M34 56C34.5523 56 35 55.5523 35 55C35 54.4477 34.5523 54 34 54C33.4477 54 33 54.4477 33 55C33 55.5523 33.4477 56 34 56Z" fill="#CCCCCC"/>
<path d="M37 56C37.5523 56 38 55.5523 38 55C38 54.4477 37.5523 54 37 54C36.4477 54 36 54.4477 36 55C36 55.5523 36.4477 56 37 56Z" fill="#CCCCCC"/>
<path d="M27 59C27.5523 59 28 58.5523 28 58C28 57.4477 27.5523 57 27 57C26.4477 57 26 57.4477 26 58C26 58.5523 26.4477 59 27 59Z" fill="#CCCCCC"/>
<path d="M24 59C24.5523 59 25 58.5523 25 58C25 57.4477 24.5523 57 24 57C23.4477 57 23 57.4477 23 58C23 58.5523 23.4477 59 24 59Z" fill="#CCCCCC"/>
<path d="M30 59C30.5523 59 31 58.5523 31 58C31 57.4477 30.5523 57 30 57C29.4477 57 29 57.4477 29 58C29 58.5523 29.4477 59 30 59Z" fill="#CCCCCC"/>
<path d="M31 59C31.5523 59 32 58.5523 32 58C32 57.4477 31.5523 57 31 57C30.4477 57 30 57.4477 30 58C30 58.5523 30.4477 59 31 59Z" fill="#CCCCCC"/>
<path d="M34 59C34.5523 59 35 58.5523 35 58C35 57.4477 34.5523 57 34 57C33.4477 57 33 57.4477 33 58C33 58.5523 33.4477 59 34 59Z" fill="#CCCCCC"/>
<path d="M37 59C37.5523 59 38 58.5523 38 58C38 57.4477 37.5523 57 37 57C36.4477 57 36 57.4477 36 58C36 58.5523 36.4477 59 37 59Z" fill="#CCCCCC"/>
<path d="M27 62C27.5523 62 28 61.5523 28 61C28 60.4477 27.5523 60 27 60C26.4477 60 26 60.4477 26 61C26 61.5523 26.4477 62 27 62Z" fill="#CCCCCC"/>
<path d="M24 62C24.5523 62 25 61.5523 25 61C25 60.4477 24.5523 60 24 60C23.4477 60 23 60.4477 23 61C23 61.5523 23.4477 62 24 62Z" fill="#CCCCCC"/>
<path d="M30 62C30.5523 62 31 61.5523 31 61C31 60.4477 30.5523 60 30 60C29.4477 60 29 60.4477 29 61C29 61.5523 29.4477 62 30 62Z" fill="#CCCCCC"/>
<path d="M31 62C31.5523 62 32 61.5523 32 61C32 60.4477 31.5523 60 31 60C30.4477 60 30 60.4477 30 61C30 61.5523 30.4477 62 31 62Z" fill="#CCCCCC"/>
<path d="M34 62C34.5523 62 35 61.5523 35 61C35 60.4477 34.5523 60 34 60C33.4477 60 33 60.4477 33 61C33 61.5523 33.4477 62 34 62Z" fill="#CCCCCC"/>
<path d="M37 62C37.5523 62 38 61.5523 38 61C38 60.4477 37.5523 60 37 60C36.4477 60 36 60.4477 36 61C36 61.5523 36.4477 62 37 62Z" fill="#CCCCCC"/>
<path d="M27 65C27.5523 65 28 64.5523 28 64C28 63.4477 27.5523 63 27 63C26.4477 63 26 63.4477 26 64C26 64.5523 26.4477 65 27 65Z" fill="#CCCCCC"/>
<path d="M30 65C30.5523 65 31 64.5523 31 64C31 63.4477 30.5523 63 30 63C29.4477 63 29 63.4477 29 64C29 64.5523 29.4477 65 30 65Z" fill="#CCCCCC"/>
<path d="M31 65C31.5523 65 32 64.5523 32 64C32 63.4477 31.5523 63 31 63C30.4477 63 30 63.4477 30 64C30 64.5523 30.4477 65 31 65Z" fill="#CCCCCC"/>
<path d="M34 65C34.5523 65 35 64.5523 35 64C35 63.4477 34.5523 63 34 63C33.4477 63 33 63.4477 33 64C33 64.5523 33.4477 65 34 65Z" fill="#CCCCCC"/>
<path d="M37 65C37.5523 65 38 64.5523 38 64C38 63.4477 37.5523 63 37 63C36.4477 63 36 63.4477 36 64C36 64.5523 36.4477 65 37 65Z" fill="#CCCCCC"/>
<path d="M30 68C30.5523 68 31 67.5523 31 67C31 66.4477 30.5523 66 30 66C29.4477 66 29 66.4477 29 67C29 67.5523 29.4477 68 30 68Z" fill="#CCCCCC"/>
<path d="M31 68C31.5523 68 32 67.5523 32 67C32 66.4477 31.5523 66 31 66C30.4477 66 30 66.4477 30 67C30 67.5523 30.4477 68 31 68Z" fill="#CCCCCC"/>
<path d="M34 68C34.5523 68 35 67.5523 35 67C35 66.4477 34.5523 66 34 66C33.4477 66 33 66.4477 33 67C33 67.5523 33.4477 68 34 68Z" fill="#CCCCCC"/>
<path d="M37 68C37.5523 68 38 67.5523 38 67C38 66.4477 37.5523 66 37 66C36.4477 66 36 66.4477 36 67C36 67.5523 36.4477 68 37 68Z" fill="#CCCCCC"/>
<path d="M30 71C30.5523 71 31 70.5523 31 70C31 69.4477 30.5523 69 30 69C29.4477 69 29 69.4477 29 70C29 70.5523 29.4477 71 30 71Z" fill="#CCCCCC"/>
<path d="M31 71C31.5523 71 32 70.5523 32 70C32 69.4477 31.5523 69 31 69C30.4477 69 30 69.4477 30 70C30 70.5523 30.4477 71 31 71Z" fill="#CCCCCC"/>
<path d="M34 71C34.5523 71 35 70.5523 35 70C35 69.4477 34.5523 69 34 69C33.4477 69 33 69.4477 33 70C33 70.5523 33.4477 71 34 71Z" fill="#CCCCCC"/>
<path d="M37 71C37.5523 71 38 70.5523 38 70C38 69.4477 37.5523 69 37 69C36.4477 69 36 69.4477 36 70C36 70.5523 36.4477 71 37 71Z" fill="#CCCCCC"/>
<path d="M30 74C30.5523 74 31 73.5523 31 73C31 72.4477 30.5523 72 30 72C29.4477 72 29 72.4477 29 73C29 73.5523 29.4477 74 30 74Z" fill="#CCCCCC"/>
<path d="M27 74C27.5523 74 28 73.5523 28 73C28 72.4477 27.5523 72 27 72C26.4477 72 26 72.4477 26 73C26 73.5523 26.4477 74 27 74Z" fill="#CCCCCC"/>
<path d="M30 77C30.5523 77 31 76.5523 31 76C31 75.4477 30.5523 75 30 75C29.4477 75 29 75.4477 29 76C29 76.5523 29.4477 77 30 77Z" fill="#CCCCCC"/>
<path d="M27 77C27.5523 77 28 76.5523 28 76C28 75.4477 27.5523 75 27 75C26.4477 75 26 75.4477 26 76C26 76.5523 26.4477 77 27 77Z" fill="#CCCCCC"/>
<path d="M30 80C30.5523 80 31 79.5523 31 79C31 78.4477 30.5523 78 30 78C29.4477 78 29 78.4477 29 79C29 79.5523 29.4477 80 30 80Z" fill="#CCCCCC"/>
<path d="M27 80C27.5523 80 28 79.5523 28 79C28 78.4477 27.5523 78 27 78C26.4477 78 26 78.4477 26 79C26 79.5523 26.4477 80 27 80Z" fill="#CCCCCC"/>
<path d="M30 38C30.5523 38 31 37.5523 31 37C31 36.4477 30.5523 36 30 36C29.4477 36 29 36.4477 29 37C29 37.5523 29.4477 38 30 38Z" fill="#CCCCCC"/>
<path d="M33 35C33.5523 35 34 34.5523 34 34C34 33.4477 33.5523 33 33 33C32.4477 33 32 33.4477 32 34C32 34.5523 32.4477 35 33 35Z" fill="#CCCCCC"/>
<path d="M21 26C21.5523 26 22 25.5523 22 25C22 24.4477 21.5523 24 21 24C20.4477 24 20 24.4477 20 25C20 25.5523 20.4477 26 21 26Z" fill="#CCCCCC"/>
<path d="M24 26C24.5523 26 25 25.5523 25 25C25 24.4477 24.5523 24 24 24C23.4477 24 23 24.4477 23 25C23 25.5523 23.4477 26 24 26Z" fill="#CCCCCC"/>
<path d="M9 23C9.55228 23 10 22.5523 10 22C10 21.4477 9.55228 21 9 21C8.44772 21 8 21.4477 8 22C8 22.5523 8.44772 23 9 23Z" fill="#CCCCCC"/>
<path d="M12 23C12.5523 23 13 22.5523 13 22C13 21.4477 12.5523 21 12 21C11.4477 21 11 21.4477 11 22C11 22.5523 11.4477 23 12 23Z" fill="#CCCCCC"/>
<path d="M18 23C18.5523 23 19 22.5523 19 22C19 21.4477 18.5523 21 18 21C17.4477 21 17 21.4477 17 22C17 22.5523 17.4477 23 18 23Z" fill="#CCCCCC"/>
<path d="M21 23C21.5523 23 22 22.5523 22 22C22 21.4477 21.5523 21 21 21C20.4477 21 20 21.4477 20 22C20 22.5523 20.4477 23 21 23Z" fill="#CCCCCC"/>
<path d="M24 23C24.5523 23 25 22.5523 25 22C25 21.4477 24.5523 21 24 21C23.4477 21 23 21.4477 23 22C23 22.5523 23.4477 23 24 23Z" fill="#CCCCCC"/>
<path d="M27 23C27.5523 23 28 22.5523 28 22C28 21.4477 27.5523 21 27 21C26.4477 21 26 21.4477 26 22C26 22.5523 26.4477 23 27 23Z" fill="#CCCCCC"/>
<path d="M30 23C30.5523 23 31 22.5523 31 22C31 21.4477 30.5523 21 30 21C29.4477 21 29 21.4477 29 22C29 22.5523 29.4477 23 30 23Z" fill="#CCCCCC"/>
<path d="M27 26C27.5523 26 28 25.5523 28 25C28 24.4477 27.5523 24 27 24C26.4477 24 26 24.4477 26 25C26 25.5523 26.4477 26 27 26Z" fill="#CCCCCC"/>
<path d="M24 29C24.5523 29 25 28.5523 25 28C25 27.4477 24.5523 27 24 27C23.4477 27 23 27.4477 23 28C23 28.5523 23.4477 29 24 29Z" fill="#CCCCCC"/>
<path d="M27 29C27.5523 29 28 28.5523 28 28C28 27.4477 27.5523 27 27 27C26.4477 27 26 27.4477 26 28C26 28.5523 26.4477 29 27 29Z" fill="#CCCCCC"/>
<path d="M21 35C21.5523 35 22 34.5523 22 34C22 33.4477 21.5523 33 21 33C20.4477 33 20 33.4477 20 34C20 34.5523 20.4477 35 21 35Z" fill="#CCCCCC"/>
<path d="M95 17C95.5523 17 96 16.5523 96 16C96 15.4477 95.5523 15 95 15C94.4477 15 94 15.4477 94 16C94 16.5523 94.4477 17 95 17Z" fill="#333333"/>
<path d="M65 29C65.5523 29 66 28.5523 66 28C66 27.4477 65.5523 27 65 27C64.4477 27 64 27.4477 64 28C64 28.5523 64.4477 29 65 29Z" fill="#333333"/>
<path d="M68 32C68.5523 32 69 31.5523 69 31C69 30.4477 68.5523 30 68 30C67.4477 30 67 30.4477 67 31C67 31.5523 67.4477 32 68 32Z" fill="#333333"/>
<path d="M68 29C68.5523 29 69 28.5523 69 28C69 27.4477 68.5523 27 68 27C67.4477 27 67 27.4477 67 28C67 28.5523 67.4477 29 68 29Z" fill="#333333"/>
<path d="M95 41C95.5523 41 96 40.5523 96 40C96 39.4477 95.5523 39 95 39C94.4477 39 94 39.4477 94 40C94 40.5523 94.4477 41 95 41Z" fill="#333333"/>
<path d="M92 41C92.5523 41 93 40.5523 93 40C93 39.4477 92.5523 39 92 39C91.4477 39 91 39.4477 91 40C91 40.5523 91.4477 41 92 41Z" fill="#333333"/>
<path d="M101 29C101.552 29 102 28.5523 102 28C102 27.4477 101.552 27 101 27C100.448 27 100 27.4477 100 28C100 28.5523 100.448 29 101 29Z" fill="#333333"/>
<path d="M101 32C101.552 32 102 31.5523 102 31C102 30.4477 101.552 30 101 30C100.448 30 100 30.4477 100 31C100 31.5523 100.448 32 101 32Z" fill="#333333"/>
<path d="M104 29C104.552 29 105 28.5523 105 28C105 27.4477 104.552 27 104 27C103.448 27 103 27.4477 103 28C103 28.5523 103.448 29 104 29Z" fill="#333333"/>
<path d="M107 29C107.552 29 108 28.5523 108 28C108 27.4477 107.552 27 107 27C106.448 27 106 27.4477 106 28C106 28.5523 106.448 29 107 29Z" fill="#333333"/>
<path d="M107 59C107.552 59 108 58.5523 108 58C108 57.4477 107.552 57 107 57C106.448 57 106 57.4477 106 58C106 58.5523 106.448 59 107 59Z" fill="#333333"/>
<path d="M110 59C110.552 59 111 58.5523 111 58C111 57.4477 110.552 57 110 57C109.448 57 109 57.4477 109 58C109 58.5523 109.448 59 110 59Z" fill="#333333"/>
<path d="M107 62C107.552 62 108 61.5523 108 61C108 60.4477 107.552 60 107 60C106.448 60 106 60.4477 106 61C106 61.5523 106.448 62 107 62Z" fill="#333333"/>
<path d="M110 62C110.552 62 111 61.5523 111 61C111 60.4477 110.552 60 110 60C109.448 60 109 60.4477 109 61C109 61.5523 109.448 62 110 62Z" fill="#CCCCCC"/>
<path d="M107 65C107.552 65 108 64.5523 108 64C108 63.4477 107.552 63 107 63C106.448 63 106 63.4477 106 64C106 64.5523 106.448 65 107 65Z" fill="#333333"/>
<path d="M110 65C110.552 65 111 64.5523 111 64C111 63.4477 110.552 63 110 63C109.448 63 109 63.4477 109 64C109 64.5523 109.448 65 110 65Z" fill="#CCCCCC"/>
<path d="M113 65C113.552 65 114 64.5523 114 64C114 63.4477 113.552 63 113 63C112.448 63 112 63.4477 112 64C112 64.5523 112.448 65 113 65Z" fill="#CCCCCC"/>
<path d="M101 65C101.552 65 102 64.5523 102 64C102 63.4477 101.552 63 101 63C100.448 63 100 63.4477 100 64C100 64.5523 100.448 65 101 65Z" fill="#CCCCCC"/>
<path d="M104 65C104.552 65 105 64.5523 105 64C105 63.4477 104.552 63 104 63C103.448 63 103 63.4477 103 64C103 64.5523 103.448 65 104 65Z" fill="#CCCCCC"/>
<path d="M104 62C104.552 62 105 61.5523 105 61C105 60.4477 104.552 60 104 60C103.448 60 103 60.4477 103 61C103 61.5523 103.448 62 104 62Z" fill="#333333"/>
<path d="M107 68C107.552 68 108 67.5523 108 67C108 66.4477 107.552 66 107 66C106.448 66 106 66.4477 106 67C106 67.5523 106.448 68 107 68Z" fill="#CCCCCC"/>
<path d="M110 68C110.552 68 111 67.5523 111 67C111 66.4477 110.552 66 110 66C109.448 66 109 66.4477 109 67C109 67.5523 109.448 68 110 68Z" fill="#CCCCCC"/>
<path d="M113 68C113.552 68 114 67.5523 114 67C114 66.4477 113.552 66 113 66C112.448 66 112 66.4477 112 67C112 67.5523 112.448 68 113 68Z" fill="#CCCCCC"/>
<path d="M101 68C101.552 68 102 67.5523 102 67C102 66.4477 101.552 66 101 66C100.448 66 100 66.4477 100 67C100 67.5523 100.448 68 101 68Z" fill="#CCCCCC"/>
<path d="M98 68C98.5523 68 99 67.5523 99 67C99 66.4477 98.5523 66 98 66C97.4477 66 97 66.4477 97 67C97 67.5523 97.4477 68 98 68Z" fill="#CCCCCC"/>
<path d="M104 68C104.552 68 105 67.5523 105 67C105 66.4477 104.552 66 104 66C103.448 66 103 66.4477 103 67C103 67.5523 103.448 68 104 68Z" fill="#CCCCCC"/>
<path d="M107 71C107.552 71 108 70.5523 108 70C108 69.4477 107.552 69 107 69C106.448 69 106 69.4477 106 70C106 70.5523 106.448 71 107 71Z" fill="#CCCCCC"/>
<path d="M110 71C110.552 71 111 70.5523 111 70C111 69.4477 110.552 69 110 69C109.448 69 109 69.4477 109 70C109 70.5523 109.448 71 110 71Z" fill="#CCCCCC"/>
<path d="M110 74C110.552 74 111 73.5523 111 73C111 72.4477 110.552 72 110 72C109.448 72 109 72.4477 109 73C109 73.5523 109.448 74 110 74Z" fill="#CCCCCC"/>
<path d="M101 71C101.552 71 102 70.5523 102 70C102 69.4477 101.552 69 101 69C100.448 69 100 69.4477 100 70C100 70.5523 100.448 71 101 71Z" fill="#CCCCCC"/>
<path d="M104 71C104.552 71 105 70.5523 105 70C105 69.4477 104.552 69 104 69C103.448 69 103 69.4477 103 70C103 70.5523 103.448 71 104 71Z" fill="#CCCCCC"/>
<path d="M113 59C113.552 59 114 58.5523 114 58C114 57.4477 113.552 57 113 57C112.448 57 112 57.4477 112 58C112 58.5523 112.448 59 113 59Z" fill="#CCCCCC"/>
<path d="M82.5 93.5H62.5C61.4 93.5 60.5 92.6 60.5 91.5V87.5C60.5 86.4 61.4 85.5 62.5 85.5H82.5C83.6 85.5 84.5 86.4 84.5 87.5V91.5C84.5 92.6 83.6 93.5 82.5 93.5Z" fill="#EFEFEF" stroke="#333333" stroke-miterlimit="10" stroke-linecap="round" stroke-linejoin="round"/>
<path d="M70 89C70.5523 89 71 88.5523 71 88C71 87.4477 70.5523 87 70 87C69.4477 87 69 87.4477 69 88C69 88.5523 69.4477 89 70 89Z" fill="#FF6F3D"/>
<path d="M73 89C73.5523 89 74 88.5523 74 88C74 87.4477 73.5523 87 73 87C72.4477 87 72 87.4477 72 88C72 88.5523 72.4477 89 73 89Z" fill="#FF6F3D"/>
<path d="M76 89C76.5523 89 77 88.5523 77 88C77 87.4477 76.5523 87 76 87C75.4477 87 75 87.4477 75 88C75 88.5523 75.4477 89 76 89Z" fill="#FF6F3D"/>
<path d="M79 89C79.5523 89 80 88.5523 80 88C80 87.4477 79.5523 87 79 87C78.4477 87 78 87.4477 78 88C78 88.5523 78.4477 89 79 89Z" fill="#FF6F3D"/>
<path d="M72 92C72.5523 92 73 91.5523 73 91C73 90.4477 72.5523 90 72 90C71.4477 90 71 90.4477 71 91C71 91.5523 71.4477 92 72 92Z" fill="#FF6F3D"/>
<path d="M75 92C75.5523 92 76 91.5523 76 91C76 90.4477 75.5523 90 75 90C74.4477 90 74 90.4477 74 91C74 91.5523 74.4477 92 75 92Z" fill="#FF6F3D"/>
<path d="M78 92C78.5523 92 79 91.5523 79 91C79 90.4477 78.5523 90 78 90C77.4477 90 77 90.4477 77 91C77 91.5523 77.4477 92 78 92Z" fill="#FF6F3D"/>
<path d="M81 92C81.5523 92 82 91.5523 82 91C82 90.4477 81.5523 90 81 90C80.4477 90 80 90.4477 80 91C80 91.5523 80.4477 92 81 92Z" fill="#FF6F3D"/>
<path d="M82.5 82.5H62.5C61.4 82.5 60.5 81.6 60.5 80.5V76.5C60.5 75.4 61.4 74.5 62.5 74.5H82.5C83.6 74.5 84.5 75.4 84.5 76.5V80.5C84.5 81.6 83.6 82.5 82.5 82.5Z" fill="#EFEFEF" stroke="#333333" stroke-miterlimit="10" stroke-linecap="round" stroke-linejoin="round"/>
<path d="M70 78C70.5523 78 71 77.5523 71 77C71 76.4477 70.5523 76 70 76C69.4477 76 69 76.4477 69 77C69 77.5523 69.4477 78 70 78Z" fill="#FF6F3D"/>
<path d="M73 78C73.5523 78 74 77.5523 74 77C74 76.4477 73.5523 76 73 76C72.4477 76 72 76.4477 72 77C72 77.5523 72.4477 78 73 78Z" fill="#FF6F3D"/>
<path d="M76 78C76.5523 78 77 77.5523 77 77C77 76.4477 76.5523 76 76 76C75.4477 76 75 76.4477 75 77C75 77.5523 75.4477 78 76 78Z" fill="#FF6F3D"/>
<path d="M79 78C79.5523 78 80 77.5523 80 77C80 76.4477 79.5523 76 79 76C78.4477 76 78 76.4477 78 77C78 77.5523 78.4477 78 79 78Z" fill="#FF6F3D"/>
<path d="M72 81C72.5523 81 73 80.5523 73 80C73 79.4477 72.5523 79 72 79C71.4477 79 71 79.4477 71 80C71 80.5523 71.4477 81 72 81Z" fill="#FF6F3D"/>
<path d="M75 81C75.5523 81 76 80.5523 76 80C76 79.4477 75.5523 79 75 79C74.4477 79 74 79.4477 74 80C74 80.5523 74.4477 81 75 81Z" fill="#FF6F3D"/>
<path d="M78 81C78.5523 81 79 80.5523 79 80C79 79.4477 78.5523 79 78 79C77.4477 79 77 79.4477 77 80C77 80.5523 77.4477 81 78 81Z" fill="#FF6F3D"/>
<path d="M81 81C81.5523 81 82 80.5523 82 80C82 79.4477 81.5523 79 81 79C80.4477 79 80 79.4477 80 80C80 80.5523 80.4477 81 81 81Z" fill="#FF6F3D"/>
<path d="M82.5 71.5H62.5C61.4 71.5 60.5 70.6 60.5 69.5V65.5C60.5 64.4 61.4 63.5 62.5 63.5H82.5C83.6 63.5 84.5 64.4 84.5 65.5V69.5C84.5 70.6 83.6 71.5 82.5 71.5Z" fill="#EFEFEF" stroke="#333333" stroke-miterlimit="10" stroke-linecap="round" stroke-linejoin="round"/>
<path d="M70 67C70.5523 67 71 66.5523 71 66C71 65.4477 70.5523 65 70 65C69.4477 65 69 65.4477 69 66C69 66.5523 69.4477 67 70 67Z" fill="#FF6F3D"/>
<path d="M73 67C73.5523 67 74 66.5523 74 66C74 65.4477 73.5523 65 73 65C72.4477 65 72 65.4477 72 66C72 66.5523 72.4477 67 73 67Z" fill="#FF6F3D"/>
<path d="M76 67C76.5523 67 77 66.5523 77 66C77 65.4477 76.5523 65 76 65C75.4477 65 75 65.4477 75 66C75 66.5523 75.4477 67 76 67Z" fill="#FF6F3D"/>
<path d="M79 67C79.5523 67 80 66.5523 80 66C80 65.4477 79.5523 65 79 65C78.4477 65 78 65.4477 78 66C78 66.5523 78.4477 67 79 67Z" fill="#FF6F3D"/>
<path d="M72 70C72.5523 70 73 69.5523 73 69C73 68.4477 72.5523 68 72 68C71.4477 68 71 68.4477 71 69C71 69.5523 71.4477 70 72 70Z" fill="#FF6F3D"/>
<path d="M75 70C75.5523 70 76 69.5523 76 69C76 68.4477 75.5523 68 75 68C74.4477 68 74 68.4477 74 69C74 69.5523 74.4477 70 75 70Z" fill="#FF6F3D"/>
<path d="M78 70C78.5523 70 79 69.5523 79 69C79 68.4477 78.5523 68 78 68C77.4477 68 77 68.4477 77 69C77 69.5523 77.4477 70 78 70Z" fill="#FF6F3D"/>
<path d="M81 70C81.5523 70 82 69.5523 82 69C82 68.4477 81.5523 68 81 68C80.4477 68 80 68.4477 80 69C80 69.5523 80.4477 70 81 70Z" fill="#FF6F3D"/>
<path d="M82.5 60.5H62.5C61.4 60.5 60.5 59.6 60.5 58.5V54.5C60.5 53.4 61.4 52.5 62.5 52.5H82.5C83.6 52.5 84.5 53.4 84.5 54.5V58.5C84.5 59.6 83.6 60.5 82.5 60.5Z" fill="#EFEFEF" stroke="#333333" stroke-miterlimit="10" stroke-linecap="round" stroke-linejoin="round"/>
<path d="M70 56C70.5523 56 71 55.5523 71 55C71 54.4477 70.5523 54 70 54C69.4477 54 69 54.4477 69 55C69 55.5523 69.4477 56 70 56Z" fill="#FF6F3D"/>
<path d="M73 56C73.5523 56 74 55.5523 74 55C74 54.4477 73.5523 54 73 54C72.4477 54 72 54.4477 72 55C72 55.5523 72.4477 56 73 56Z" fill="#FF6F3D"/>
<path d="M76 56C76.5523 56 77 55.5523 77 55C77 54.4477 76.5523 54 76 54C75.4477 54 75 54.4477 75 55C75 55.5523 75.4477 56 76 56Z" fill="#FF6F3D"/>
<path d="M79 56C79.5523 56 80 55.5523 80 55C80 54.4477 79.5523 54 79 54C78.4477 54 78 54.4477 78 55C78 55.5523 78.4477 56 79 56Z" fill="#FF6F3D"/>
<path d="M72 59C72.5523 59 73 58.5523 73 58C73 57.4477 72.5523 57 72 57C71.4477 57 71 57.4477 71 58C71 58.5523 71.4477 59 72 59Z" fill="#FF6F3D"/>
<path d="M75 59C75.5523 59 76 58.5523 76 58C76 57.4477 75.5523 57 75 57C74.4477 57 74 57.4477 74 58C74 58.5523 74.4477 59 75 59Z" fill="#FF6F3D"/>
<path d="M78 59C78.5523 59 79 58.5523 79 58C79 57.4477 78.5523 57 78 57C77.4477 57 77 57.4477 77 58C77 58.5523 77.4477 59 78 59Z" fill="#FF6F3D"/>
<path d="M81 59C81.5523 59 82 58.5523 82 58C82 57.4477 81.5523 57 81 57C80.4477 57 80 57.4477 80 58C80 58.5523 80.4477 59 81 59Z" fill="#FF6F3D"/>
<path d="M53.4119 93.5H33.5881C31.8946 93.5 30.5 92.1 30.5 90.4V48.6C30.5 46.9 31.8946 45.5 33.5881 45.5H53.4119C55.1054 45.5 56.5 46.9 56.5 48.6V90.5C56.5 92.1 55.1054 93.5 53.4119 93.5Z" fill="white" stroke="#333333" stroke-miterlimit="10" stroke-linecap="round" stroke-linejoin="round"/>
<path d="M52.5 49.5H34.5V55.5H52.5V49.5Z" fill="white" stroke="#333333" stroke-miterlimit="10" stroke-linecap="round" stroke-linejoin="round"/>
<path d="M37 51H36V52H37V51Z" fill="#333333"/>
<path d="M37 53H36V54H37V53Z" fill="#333333"/>
<path d="M39 51H38V52H39V51Z" fill="#FF6F3D"/>
<path d="M39 53H38V54H39V53Z" fill="#333333"/>
<path d="M41 51H40V52H41V51Z" fill="#FF6F3D"/>
<path d="M41 53H40V54H41V53Z" fill="#FF6F3D"/>
<path d="M47 51H46V52H47V51Z" fill="#FF6F3D"/>
<path d="M47 53H46V54H47V53Z" fill="#FF6F3D"/>
<path d="M49 51H48V52H49V51Z" fill="#FF6F3D"/>
<path d="M49 53H48V54H49V53Z" fill="#FF6F3D"/>
<path d="M51 51H50V52H51V51Z" fill="#FF6F3D"/>
<path d="M51 53H50V54H51V53Z" fill="#333333"/>
<path d="M45 52H42V53H45V52Z" fill="#333333"/>
<path d="M52.5 58.5H34.5V64.5H52.5V58.5Z" fill="white" stroke="#333333" stroke-miterlimit="10" stroke-linecap="round" stroke-linejoin="round"/>
<path d="M37 60H36V61H37V60Z" fill="#333333"/>
<path d="M37 62H36V63H37V62Z" fill="#333333"/>
<path d="M39 60H38V61H39V60Z" fill="#FF6F3D"/>
<path d="M39 62H38V63H39V62Z" fill="#333333"/>
<path d="M41 60H40V61H41V60Z" fill="#FF6F3D"/>
<path d="M41 62H40V63H41V62Z" fill="#FF6F3D"/>
<path d="M47 60H46V61H47V60Z" fill="#FF6F3D"/>
<path d="M47 62H46V63H47V62Z" fill="#FF6F3D"/>
<path d="M49 60H48V61H49V60Z" fill="#FF6F3D"/>
<path d="M49 62H48V63H49V62Z" fill="#FF6F3D"/>
<path d="M51 60H50V61H51V60Z" fill="#FF6F3D"/>
<path d="M51 62H50V63H51V62Z" fill="#333333"/>
<path d="M45 61H42V62H45V61Z" fill="#333333"/>
<path d="M52.5 67.5H34.5V73.5H52.5V67.5Z" fill="white" stroke="#333333" stroke-miterlimit="10" stroke-linecap="round" stroke-linejoin="round"/>
<path d="M37 69H36V70H37V69Z" fill="#333333"/>
<path d="M37 71H36V72H37V71Z" fill="#333333"/>
<path d="M39 69H38V70H39V69Z" fill="#FF6F3D"/>
<path d="M39 71H38V72H39V71Z" fill="#333333"/>
<path d="M41 69H40V70H41V69Z" fill="#FF6F3D"/>
<path d="M41 71H40V72H41V71Z" fill="#FF6F3D"/>
<path d="M47 69H46V70H47V69Z" fill="#FF6F3D"/>
<path d="M47 71H46V72H47V71Z" fill="#FF6F3D"/>
<path d="M49 69H48V70H49V69Z" fill="#FF6F3D"/>
<path d="M49 71H48V72H49V71Z" fill="#FF6F3D"/>
<path d="M51 69H50V70H51V69Z" fill="#FF6F3D"/>
<path d="M51 71H50V72H51V71Z" fill="#333333"/>
<path d="M45 70H42V71H45V70Z" fill="#333333"/>
<path d="M52.5 76.5H34.5V82.5H52.5V76.5Z" fill="white" stroke="#333333" stroke-miterlimit="10" stroke-linecap="round" stroke-linejoin="round"/>
<path d="M37 78H36V79H37V78Z" fill="#333333"/>
<path d="M37 80H36V81H37V80Z" fill="#333333"/>
<path d="M39 78H38V79H39V78Z" fill="#FF6F3D"/>
<path d="M39 80H38V81H39V80Z" fill="#333333"/>
<path d="M41 78H40V79H41V78Z" fill="#FF6F3D"/>
<path d="M41 80H40V81H41V80Z" fill="#FF6F3D"/>
<path d="M47 78H46V79H47V78Z" fill="#FF6F3D"/>
<path d="M47 80H46V81H47V80Z" fill="#FF6F3D"/>
<path d="M49 78H48V79H49V78Z" fill="#FF6F3D"/>
<path d="M49 80H48V81H49V80Z" fill="#FF6F3D"/>
<path d="M51 78H50V79H51V78Z" fill="#FF6F3D"/>
<path d="M51 80H50V81H51V80Z" fill="#333333"/>
<path d="M45 79H42V80H45V79Z" fill="#333333"/>
<path d="M37 85H34V86H37V85Z" fill="#333333"/>
<path d="M42 85H39V86H42V85Z" fill="#333333"/>
<path d="M43 87H40V88H43V87Z" fill="#333333"/>
<path d="M48 87H45V88H48V87Z" fill="#333333"/>
<path d="M53 87H50V88H53V87Z" fill="#333333"/>
<path d="M47 85H44V86H47V85Z" fill="#333333"/>
<path d="M53 85H49V86H53V85Z" fill="#333333"/>
<path d="M37 89H34V90H37V89Z" fill="#333333"/>
<path d="M42 89H39V90H42V89Z" fill="#333333"/>
<path d="M47 89H44V90H47V89Z" fill="#333333"/>
<path d="M53 89H49V90H53V89Z" fill="#333333"/>
<path d="M38 87H34V88H38V87Z" fill="#333333"/>
<path d="M79.5 48.5V37.5H104.5V34" stroke="#333333" stroke-linecap="round" stroke-linejoin="round"/>
<path d="M87.5 72.5H105.5V66.5" stroke="#333333" stroke-linecap="round" stroke-linejoin="round"/>
<path d="M87.5 57.5H94.5V43.5" stroke="#333333" stroke-linecap="round" stroke-linejoin="round"/>
<path d="M74.5 48.5V32.5H94.5V21.5" stroke="#333333" stroke-linecap="round" stroke-linejoin="round"/>
<path d="M64.5 32.5V41.5H70.5V48.5" stroke="#333333" stroke-linecap="round" stroke-linejoin="round"/>
<path d="M54.5 43.5V34.5H59.5V19.5" stroke="#333333" stroke-linecap="round" stroke-linejoin="round"/>
<path d="M35.5 16.5V30.5H43.5V41.5" stroke="#333333" stroke-linecap="round" stroke-linejoin="round"/>
<path d="M35.5 18C36.3284 18 37 17.3284 37 16.5C37 15.6716 36.3284 15 35.5 15C34.6716 15 34 15.6716 34 16.5C34 17.3284 34.6716 18 35.5 18Z" fill="#333333"/>
<path d="M59.5 22C60.3284 22 61 21.3284 61 20.5C61 19.6716 60.3284 19 59.5 19C58.6716 19 58 19.6716 58 20.5C58 21.3284 58.6716 22 59.5 22Z" fill="#333333"/>
<path d="M64.5 35C65.3284 35 66 34.3284 66 33.5C66 32.6716 65.3284 32 64.5 32C63.6716 32 63 32.6716 63 33.5C63 34.3284 63.6716 35 64.5 35Z" fill="#333333"/>
<path d="M94.5 24C95.3284 24 96 23.3284 96 22.5C96 21.6716 95.3284 21 94.5 21C93.6716 21 93 21.6716 93 22.5C93 23.3284 93.6716 24 94.5 24Z" fill="#333333"/>
<path d="M104.5 36C105.328 36 106 35.3284 106 34.5C106 33.6716 105.328 33 104.5 33C103.672 33 103 33.6716 103 34.5C103 35.3284 103.672 36 104.5 36Z" fill="#333333"/>
<path d="M105.5 69C106.328 69 107 68.3284 107 67.5C107 66.6716 106.328 66 105.5 66C104.672 66 104 66.6716 104 67.5C104 68.3284 104.672 69 105.5 69Z" fill="#333333"/>
<path d="M94.5 45C95.3284 45 96 44.3284 96 43.5C96 42.6716 95.3284 42 94.5 42C93.6716 42 93 42.6716 93 43.5C93 44.3284 93.6716 45 94.5 45Z" fill="#333333"/>
<path fill-rule="evenodd" clip-rule="evenodd" d="M19.5 36C19.7761 36 20 36.2239 20 36.5V60H27.5C27.7761 60 28 60.2239 28 60.5C28 60.7761 27.7761 61 27.5 61H19.5C19.2239 61 19 60.7761 19 60.5V36.5C19 36.2239 19.2239 36 19.5 36Z" fill="#333333"/>
<path fill-rule="evenodd" clip-rule="evenodd" d="M11.5 30C11.7761 30 12 30.2239 12 30.5V51H27.5C27.7761 51 28 51.2239 28 51.5C28 51.7761 27.7761 52 27.5 52H11.5C11.2239 52 11 51.7761 11 51.5V30.5C11 30.2239 11.2239 30 11.5 30Z" fill="#333333"/>
<path d="M11.5 33C12.3284 33 13 32.3284 13 31.5C13 30.6716 12.3284 30 11.5 30C10.6716 30 10 30.6716 10 31.5C10 32.3284 10.6716 33 11.5 33Z" fill="#333333"/>
<path d="M19.5 39C20.3284 39 21 38.3284 21 37.5C21 36.6716 20.3284 36 19.5 36C18.6716 36 18 36.6716 18 37.5C18 38.3284 18.6716 39 19.5 39Z" fill="#333333"/>
</g>
<defs>
<clipPath id="clip0_1_553">
<rect width="116" height="104" fill="white"/>
</clipPath>
</defs>
</svg>
