<svg width="12" height="12" viewBox="0 0 12 12" fill="none" xmlns="http://www.w3.org/2000/svg">
<path fill-rule="evenodd" clip-rule="evenodd" d="M0 6.00021C0 2.68664 2.68579 0 5.99893 0C9.31379 0 12 2.68664 12 6.00021C12 9.31293 9.31379 12 5.99893 12C4.28338 12 2.73604 11.2797 1.64267 10.125C0.624487 9.04973 0 7.59781 0 6.00021ZM8.44376 8.44557C8.75088 8.13879 8.75091 7.64106 8.44384 7.33423L7.11128 6.00275L8.44457 4.66841C8.75141 4.36133 8.75146 3.86373 8.44468 3.55659C8.13765 3.24921 7.63955 3.24897 7.33223 3.55605L5.9995 4.8877L4.6682 3.55642C4.36093 3.24915 3.86272 3.24924 3.55555 3.55661C3.24865 3.86373 3.24861 4.36142 3.55546 4.66859L4.88822 6.00275L3.55619 7.33405C3.24911 7.64097 3.24923 8.13879 3.55647 8.44555C3.86325 8.75186 4.36018 8.75173 4.6668 8.44527L5.9995 7.1133L7.33362 8.44564C7.6403 8.75191 8.13711 8.75188 8.44376 8.44557Z" fill="#808080"/>
</svg>
