<svg width="24" height="24" viewBox="0 0 24 24" fill="none" xmlns="http://www.w3.org/2000/svg">
<path fill-rule="evenodd" clip-rule="evenodd" d="M16 11C16 13.7614 13.7614 16 11 16C8.23858 16 6 13.7614 6 11C6 8.23858 8.23858 6 11 6C13.7614 6 16 8.23858 16 11ZM15.1922 16.6064C14.0236 17.4816 12.5723 18 11 18C7.13401 18 4 14.866 4 11C4 7.13401 7.13401 4 11 4C14.866 4 18 7.13401 18 11C18 12.5723 17.4816 14.0236 16.6064 15.1922L20.7031 19.2889C21.0936 19.6795 21.0936 20.3126 20.7031 20.7031C20.3126 21.0937 19.6794 21.0937 19.2889 20.7031L15.1922 16.6064Z" fill="#333333"/>
</svg>
